<mxfile host="app.diagrams.net" modified="2024-06-06T15:44:26.591Z" agent="Mozilla/5.0 (Windows NT 10.0; Win64; x64) AppleWebKit/537.36 (KHTML, like Gecko) Chrome/125.0.0.0 Safari/537.36 Edg/125.0.0.0" etag="dAo1sulbI8Pd0h6sugla" version="24.4.15" type="github">
  <diagram name="第 1 页" id="DkE_lKtoLtPiCnV8o8JE">
    <mxGraphModel dx="1226" dy="1285" grid="1" gridSize="10" guides="1" tooltips="1" connect="1" arrows="1" fold="1" page="0" pageScale="1" pageWidth="1169" pageHeight="827" math="1" shadow="0">
      <root>
        <mxCell id="0" />
        <mxCell id="1" parent="0" />
        <mxCell id="K8Go7ReBd2svrrOu9Uif-1" value="" style="endArrow=none;html=1;rounded=0;fontSize=12;startSize=8;endSize=8;curved=1;" parent="1" edge="1">
          <mxGeometry width="50" height="50" relative="1" as="geometry">
            <mxPoint x="-200" y="-480" as="sourcePoint" />
            <mxPoint x="460" y="-490" as="targetPoint" />
            <Array as="points">
              <mxPoint x="-40" y="-460" />
            </Array>
          </mxGeometry>
        </mxCell>
        <mxCell id="w5DbKVON7oJ_gciqgCdb-2" value="" style="shape=image;verticalLabelPosition=bottom;labelBackgroundColor=default;verticalAlign=top;aspect=fixed;imageAspect=0;image=data:image/png,iVBORw0KGgoAAAANSUhEUgAAAGMAAABdCAIAAAA+KU8fAAAgAElEQVR4Aey8d1gUW9aHO983czxKzpJD0znnHGm6gW5ykKAiYpaMIKCCihElRwHJORjIIDnnnDGdPCfnoEJ336e7PWnufHPPnTn+N/X8nqKsrrDrrbVX7b32Xv5F9t/ljxH4yx877L9Hyf5L6o8awX9J/ZfUHyXwR4/7r039O6SkMtmOTLYjlUmlMqlEJpX/QyaT/DFJZVKZ/ET5nz94yi+HKc/6zVpZgP/f1/nlgj+XXH4dqfwyyh3SP0rlnx33W5uSymTbMtkrqWxbKtvZlu28kkleySQSqUQq187P+j/++ZqyRCqTKChLd+SslcR/3f6HnySKAySKd6N8KqlMIpW/LeXt/sB9Xxfs11JJpPJiv5JJdmQ7Evml5A+leLQ/jZRMWUolL/nVpS+l0peKmypv/a/WUukrqbxAcklf434llb38I1Ke9bu19F/d6/+zSPJiy6UsjPzFKyzrn5nKH973q00p6p785St4bcuk268LtLMj+wOSSOUHSeTaViB7KZO9+IOSyl4o9AtiuUH9kZv+H8f8XHKpnJFEblxy0/6PLEr2m/aUkpSCkHRbKn3xSrItkb58JX25I3u5LXuxLV/LtxV6tSNTSr5T8esPEtm3UtkPUtmPErkpvpJIt3e2X2xvv9zZ2ZZIXu7s7Ch3SqUvtiWvdqQvtyWvJNKXO5JXEskLieRHyc4PO5KfJNIXUukLqewnieyVRH6Ll9uvb/T6dj8XQHnff7p+8Ur6clv6alt+i9ePo/ADfyIp6Y5se1sm+Ukme+/zrxu6pipaJkuaZooeTN69P1HYOP5b3b03fvfeeOG98YKGsYKGsfyGsZx7E3kPJvMfjFe0Tjb3L7T3zbd1Tz8aXnk0sjo2/3x65YPJ5fdnVj8cm3/eP7ExNPNkavmDpcdfbr73/eqzr5fe+3r+3a/GNz/tnX2vsWel7OFM8b3povsTyuvn148oNHqnfiSvbjivbji3bji3Rqmh3BqlhnNqBrOrBrKrBrIqB3OqB7Mruksaez/86tsXcm8iUVj6f8Tq19onk5voq23Zzo8y2fpHX10vGYjJHYrIHInMGo7IHAxLHwhN6wt5rd7gVKV6Tid3K3Xidm9w+mB4am9K1UJ11/PcqvHatrWy5tWsyonCxoWK1o2Chvm82um0kqHMivHbhf3ppSOFDfNlzaslD1dKOlfTGyYT7/Yl3Bk8nzkckzp8NnUkNK0vOFV+/VO3uk4qdCKp8/jNDoXaj1xt/QcFXmkOuNz0s1qOXLl/Jrnh8adf/yg3KKVf/5NISeVXlEikO9tSycZHX18uHY/KGzubPRqVPRWZNRmeMR6WPhaaNhqSOhKcOhyUOnw6dehUyuCp5Nc6fXvg9K3+yLShpOrVkq4PCluf3Glav924lFg+d6tqM73mcUbVQm3vVsvw0/HFb7rHP8kom4hP7zmXPnA+e/Ri/tjZzL4z6X3haYMhqWNBKZOnksdDUwaDUwZPJw+euj146vbA6dt9J2/1HrvZeyxJvj56s0euGz3HrvcfvdoXmNgbmNh75Ip84/CVnsDr3ceudYffbN765Jsf5dVXYVjyBsy/v/xqU8o2gqIpsP30429v1MzHFkzG5w6ey5uOyZk+mz0VlTlxJmM8Im00PG00LG0kJHU4OGXoZw2G3O4Pu917Pm/8WtlC+r2N27WL5/IHIu8OhOWOROfMxefN3yyZapt6f+2j75/8/fvl59/c71/PvTdzu2YmNrc/NnswKrU/KmMkNHU4KG38VNrU6bTJiLThsNThkJThoOShoNuDwbf7g5L6Tt7sO5nUd+Jm7y86frX3xNW+U9cHTl7tP3G17+S1/uNXe45fb4nJGE0vn3n/yx9eyn6SSl8ofPq/j0n2Dx59W9523JFKt5998l3ag/XLFUtXCsfjC+bO58/F5c3G5sp5RWdNRGaMh2eMhaWPhqaN/KqUodDk/vC0gejs4fMF45GZvTF3BsPy+sJyRyKzp85mTt4om+1Z/Xb63a8W3/9g8tm7rTOrjRMbtRNPr9cMni8Yis0Zjc2djMwcC80YC8kYD8kYD8tUWvFwWNpwaPpwaPpocOpIUPJgUPLg6dsDp271K9R38sajkNs9ocl9Qbe6w1L7T93oSmnYrB58t6Lzvdr2rc++fSmRvpA3DeUN6jdDKv3Bxo269Vvls5dLFuIL5y8UzJ7Ln47Lm4zJGY/OnojMmoiQP8noLwpNHQlLHQnPkPu1M1mDZ7IHIrMHQnL6w3JGwrPGo7LGLxfP3KyaLOtZbZ7eKuuZqRxYzXgwdaViKK6wNypnMCJjKDJrODx9KCJzOCJzJCxzJCRrIiJrNCK1NzK1JzytPzRrLCRzPETxbkJSh+WV/fZAcMpgVPbwufzRs7mDkZm9YamPrpTPFfd+mNc0nVMzU1w7+eU3L+Rtq1c78ubnGyKVdn/9eu1aSvXC7br1a5XLF4tn4+9Ony+YjMsbi8kdP5s7HZUzdSZ7MiJzXKmwjHGFxsIyRsKzhsKzBsOzBkKzB8NzRiJzxs7kjEfljsbcGYkvHr9ZPR9fOJpYOptYthSTNxmVPRmeNRqWNRyeNRyZNRSZORCVPRiZORCeNRyd2ZtcOppTO3317khk1kBo5mhk1kR4xlh4xlho2khwylBk1kR0zvDF4smzuYNncwbO5gxcLJm8VDJ+Mf/RzcKxzLvDf//8e4l0W97ieOOkqhaSalaSGzaTateuVixeKpmNvzt1vnA6rmA+Nn/ubN5MdO50dO50VO50RPZMePZseM5UePZkePZYeM6IUhE5o2fyxqLyJyLyJkJzxsKyR8/kTURkj8vPyp6OzJw+kzUTnj0ZmjMWnjMclTsce2fwWvlUYulE3J3BvIbZufWvn3zwsmPknaSKydg7E/KzFG9IadRnsifP5ozG5o2eyRw4mzMcnTUYlTUYmd4fnTUUkzp2PWfs/c9/2JbK+2PyvtafaFPyq8n91Cu5n1LY1O3qhZs1SzdrlpMbNm7WrFyrXEgsm7lYMnvh7uK5woW4grmYO7NKReXNn8lbOJM3F5k3HZE7EZE3HpE7Hpk7cSZvPCp//EzBZGTBdHj+bNididC8ocj8sTN5Y5E5o1G542dyxsJyJ8LyJiLzRqJyhzIeblQO/r166O+di99MbXy7tvnZ1tZnK0++uzfw3uXiacXrmY3OnYnKnT57ZzY6dyo2ZzyhYCqt8emFO1PRWaPRGSPRmWNnMqfPpi9dyZ19/vlPcmculf6nLfTfenSZopkglWzvyF49/eS77HubV2s2LtctXqtZvFm7dqvu8e2Gx7fqVxMrJy6VjV8uXbhSvnSpZD6haPbC3ZnzBdNxBXOx+Qtn82bP5s3G5M/F5M+d/Y2i8mbOyDUbnj8VWjgRcWfybM7Mudz56OzpyJyps3dmYnInzt8Zjc8fulQ0lP5wuXb878Nrn0w//mJw/qP2kXfrHz0pvLeaXrNypWw15u5qZOFaRN7S2byZ+NyR5KK+e91bFa1rSXdHr9+dTsidupA9eSlr7Fz2dGL+6Aeffy+RyOvef1z5ftObkRunPMgiJ/Xs0+/vPNi6Wb95tXHpVv3y7br123WPU+ofpzZuJDfOR2a2XylfuFqxeLl0/nLp/MXi2YSimQtF8+fvLsYVzP+i2IL5mMLXis6fVSqyYDqscCK6YOr8nZmI24Mx2ZMxd2Zi82dj70wnFM9dr166UbNwpXrmes1Met3knYdzeY3TOXWTWdWjFa3LeY1zl4vGL5TMxRQvnCtejL87mdmw3D7x977ZT2s7N3Jqp1OrpnPvr+c3P0kumrmUP3OtaOyjL76XvhFS269JvfPZD0VNm2mNG7fuL6TdW0mtX0+p27xVtZpav5LWOBub25XcsJFUu3qlfP5qxcKV8vnLpXMXSxcTSpYvFC2ev7twrnD+XOF8XOF87N3XiimcU+pMwVREwXhc4cSlglGez9XI5K6Eounzd2diC2fPlS7GV6wmVC5frFy4VDF3qWwxsXw+pW6utGN1bOvLlQ+/n3n2Zd3g05sVw4llw1fKx5Kqx6sGnrdPf97Q905p62pF10ZV3+OawSeVPRvFD9dvlM3fLB396MsflN3NN2BT8pDA9nuffV/V/jj3/nrmw9mse8uZDevpdRty1S+l1I6fv9OVdn8j9f5GcsNaUt3y9aqFKxWzlysWLpUvJpQuJJQsJJTMx5fMXSieO1ei1Oy54tm4opnYu9MxhdPRd8Yu5A8l3um28YqmOkf6RhVeKZ26XLEQV7oUV7F+rnw1sWr5SvlcYuVmYsVK+r3lR0ufLX/03dYnX2x9/EXv3PPqzqnmsc26/rXcBxMZDWMpNdO3K2dSqqdy7s8Uts2m1/en1fXl1k1dLRm/XTn68dc/KkjtvAlSkh3Z9odf/PCg953S1s27bfMFzWt3Hm7l3nucVbeWVb+Y0TBxuag7/eF62oO11PuraQ/WkhtXbtUvXa9dvlq9nFi5mFi5eLli8VL5/MWyufjyX3WhbO586cz54rmTNzpY+87hbA+eiEvF8A/4RmQcu3DXIyQjKn/0QtXGpaqN6+Xz6dVz6XWrdUMf1w88bR3f6p5eHpxfGF1cW33ny8+/3/78h533v5GMP/6msH3pZtXMjcr5pOrZ7AfL9yc+vjf6XlnncknLXOb9hcyGyY+/VtqU5I2Qksi2P/v2Rd/EJw/63mnoX6vqfV7e9W5R6/M7D7YKmtbS60evlvZmNq+nP1xLe7Ca2byR2byR0bye8mDz9r2tpIaNm/XrN+rWrteuXK1evlS1qNTFyoWEivkLZbOJlctXiuc4ntF4G0+ywF3bioDiHiDwfIBklyvlE4k1a0l1G3cfbvZPfTa5+sXC0y+n1j9+0DPZO7W08PTd9Xc/ffzsy2dPP33+7NO1x59Pbn1TO/Reyv2Nm/VrtxvWsx8+KWh+mnd/o+jBRm3PanH35p3mmU++UdrUn05KHtqV92aev/vR7dSq7IKm5u7Z9tEP7vW+W93xrKL1cXnrRkbVcFJ5X2bzYk7bambzclbzalbzWnbLembzVkbz47SmzZSHG7fvr928t3K9Yelq3cK12umEwq74vKYrha03irpuFHTdym8LCL5wJDjC84C/wNnT81DQvoAghsjvWlH3rfql9PvrFV2P67tW65sn2vtX5p98Nf/0q6V3vlx49vHM6jtLK+9urH+wuvp+/9hmZftiZsPsrfqlm3Urt2pWs+49yap7nFm1kVe7kd0wntE4lf9wQkFKHhdURCj/pN6MItj5SrbzUrazvTg7x8BTyGiSk9D5yIm45Myq1u7F+tbpuraZO1X9mVV92U0TeS2zea0LBe1rBW2bBW1Pcps3s5s3slo2Mls30lrWbzWt3Li/eKN+Lr1hKDAi5uKVhNDg48HHT5yNCDtyeF9M9KnY6FMXL4QnXoq6djX2xu2r11JS0wpqb+Q0JhW1p1R1ptZ25VaPl7ZslD96p7LnWUXXStPgyvDM45XNj568/+3Ghz+NrH1V0/8k++FCRuNizoPV3PtruQ2rebUreTWrWRULWfXTFZ3LTQPLn377o0Q+7KCI6P1nTc9fYwnyVqc82PlKKt2Zm51jMdhMGodJ59LYXLG7p72bJ10g8gg4EXM9lebodzAmtbJvvbhjubh9pbh9vaht427bZn7rek7LalbLSmbranrramrLcuqDxfS6voCQyITL5xMvxqXcvJmRnHrz2qXSorzSorzsjNupt69lyHecvRgXkRAbeyzg2JXL10JCgo8cPxZzoyivcTLnwUJe81rrzOezz19Ob30ztvL3zolnFZ1LBS2L2U1LOW0bxR1btT1Pu6Y/aRt7v3PsvZ7J9zuGn4wsfvT4o++Xn3z09fc/yXvGfy4pxeiTfDxjRyZdWFrm2dox2bY2tqK4+ItpWbm3M3Nziisv3so4HXPxUnpJbsNwXd9aXe96Xc9GXc9mbc9mdffj8q6tu+1r+W0rue3LCq1mPpwLu57PcnB0dnN0cxW7OrvZcAUMGt3Nxc3DzeOA7/5jR46ePnkqOjz4XHTYxdio4CMBF6PDr5+PTEo8l5RXkVrZmdM8l9W0mt+6VdbxuKprq6h14W77ck7TYnbrWkbLelrzxv2RD+ef/7T07o/Tm59PrLw7vfZsdu3p3MKT6em1lZUnL19tK2IIytG4P6n2KUgph4Rki8urYkcPe5GHrcClt3t6ceEdX7+QQ4ExabmNYWdTfY5e4DgebR7aahnefDCw2jy0/qB/pX383freraqutcqutcrejaLOpTttC2l1o4UPBo+ERly+fiko+OShgGOBR04L7cTOLh4ent6+fv779x9ydfMSOXs6uvuIXT2YHM4+Hx9vHx83Dy+3QydzG3tyW+YyW9ayW7fyWrbutKzntS7ntq4qMK1ltm1kt2+Vtq/Wd63Udsze757unlgcX1ofW1iemlmbm91YWFj/8acXfz4puZEqh992ZCtLay7iffYCd7GdF5fphEVxcVhbDtfrelLZmdgMCmtfYXV/68Da0Px7g3PPu8ZWW4fmWwbWHvZtPOjbaBp63DT6tH5wo/TRYnrtUFnzYMLNWxcunsfgseZWME/fwy6eHqdCgo+cOO578OA+P1/v/fv9D5/cH3DS0XOfq6/vpdspR8Ni9x+LunA7v7RtsqBzJadzK7vrSU7n1p2OzfyODbna1++0rea3rxV0yj1ASet8ZedC+/jTnpnnvVOPe6ced41tdg4tdw/NffX9j39+7Xvdm1EM2a3Mre5z9HO29XK29fR087TlCwICjiZevdXVN3ozNa/50WTnwGbX0PrA1JNHo8v5lffvdQ12j2+09K81D6w1D603j2zW9S3W9S/X969WtQ0l3LzJ5XOsIRBzIIrBs7NzEoZFhyVnJl++cTk2IcbRTewqcogNC4oIPhITE8IT8kEoIpYmupZZXdmxUNi1ntvzJKf3cW7ven73etGjjeKujeKutaKOldLOlfKu1dJHq+W9myUdq2Uda6Uty2XNK+Uta+WdGxWdS80Dy59//0Lyp/upX0m9kD1ffno5NCH8SNR+j0B3Vzc6lUYikEUOzmfPxqek5A4MLg6OPR+dftw5MJSYfNV1v9PBU75xSRev5aXmVBdG34gJTjh1JPrgsRj/87fOnb1y9tKtyzQu0wIEMQPC7Z2djp70PR7sF3jaa/8xx4OnnILiDtBZCL4N8dz50AsXo1E4LBiJh2LoPsdD797vOH0xOauhu7x7prJ3tvzRYmXP4/KujYqu9bKO5cqu5fqB9fbFj5pm36voWy3rXq3o3iztWCtpW69sf/bg0eP+ofXvvnshD7rIx2Ykimr477uq3377FGPeOzLZS9nq1LIbz0XEdbEXuvNt+E6OTlwOj0ZlR0ddyEwvWF55b3rpnZae3v0nvR39mHZeeKcDVLv9TLcTDra+FDs/ovgA3uMo2T+YExDieO56aHLObRqHw7WxsxM57T/oHRkdKBAR7V1JXDHSfh/B3gcvdCEjcJYBx7yTUm8wORxLAMTEzNrLx/vYyRP+AYFBIWfCwuOioi9fuJpT37d+f3iztnexvn+xqGWoqHWwpnsgubgs+kZyQnp+WmlDdlVzVmVrY8d6c8dC0/1HX372pVQq+RNmJfw26qIccZCHm3dki7PLdjZOQoGbncjD74DniZMBHp4ufFtuSkpydnbu4Nh4fm3ZofCDTFeMjTeCtw/Kcgcx3ZB8H5KNF54ugvJc0E5+NCcfmvcxt/PXzwdFhDuK3dyd9+1z9XBzsjt5yjciKlAgIgudyCx7FMcR4+hKw2LMvTwEly9Gi+1tSTgcBYf3cxEnno2MOX3iWmzspTPRlyJj4uMT6/uHM6rrzty46RMahOazMQK260FnIgsJwVrBcCAwGkjhkElsumifv2/A8QMHDn3wwbsy6Y5yZsd/Fsj7TdRFSeqlYnbA1NwC19aRwRXx7VxdPAU+B5yEIhZPQE/JSMrJz7yRfm3fSTeWG47hDubsA9LdLMWBRLIYyHHHclwwTBGKZYdmCzF+h528AzzPxEafPBnqKHRxtHHwc3bxdRUFHHS/dPGMq7uAycW7+di7eNs5iukMEsSORxRwSBwa3tfd+aCXm4+HfWTo4cCDbsEnDxw/vO/UEV9ffw+XAA8QFQ6hwxBsOEGIRbAhGA4Ux4bZe/HINjgoEWwKNQViQRACDIAEcgWcx0825DMSlNNo/v2aJz/z19onD08pJhS8kMnG5xcZfBFX4MIXOLt425GYCAobw7Klng4/cTToiMDZ5kCQO88Nw3aBMJ2AfE80ywmJZgPItggUHQDEGCIJFnQ20u+AKDDQIyL4ePjp4Niw6AsR0bEhwek3EksLslKTrra1PLh3r66ru7Orp2ugr2NmYnBherSz5X5JQU5tRWl2RrL3EXe+G5vAQ8GoVhQhGkEHoBhgHQt1bXNVKNkSz4OYwnWssHoWKGMSj+ju70G2oZlBAaYQoCkYoG2ibg41s4ACVjbXd+QTLRSe6j+Le/5KSg5e4fdeKkixbMV8G2ehjROBgTaHGsMIEDgBfiL8lJuvB8+e6+5jT+fCKGwg2xZp50SHIq0sIGbGQCMLqDHDBg9Hm1qDtZ2dqWeOOiadO5F789LDyor+zo7B3kcDj9raGupbGxvv1da3N3fU1d7PzipoampraWkfHh4dGR2bnZtbXlleXV8tfVhBsCWaok3NccYoLgRjAyHwENZIcyu4KRhjbo0ytoTrWSH0gNZ6WLiFDQOHBFmY6mmb6unAAFYGRjr6pkZ0gf3qs+c78m+fYuaM/An//eX3pBSTQnaksunFZTbPQSR093E5AEKDUVQ0iUOBEzEnI8NgeBwICiHhEGiEpcieUV6SU19deScrPzM77+qtmwePHGTzaSCooYWl+rEjDhkJB7MvHU8+Fxx96uhR//1BQccdRQIqFg2zAtiybFJvZQptXVxd9nt4HrIXe1lYI60hGBqL7+F9kMriHQ09iSSjoTiwwJnNtSdZQnWJdMRes71aBpp6xjoAqCmVjXbx5MYcdYvyFt4IOhDpJT5sywr3cDwmFlKIZByZwbR3W332rsKmXskkL//DIYffk1K4PqlUtrS04uLiKRa5CvgOMDiKweRg8UQCkXLzVopI7GJpagEzNQWbmpjq61mamJibmF6Kv3w14fKF2POKBrcrBo/BY8GR4QcxFKvo6GMJYSGhfoeijxz3tBfa2tBAUDNjY10wCHDzxk07O0eOjb0NT3T65BkWR6RnCEThON7eJwhEvt1+XzCVoGduBIIByFgEzNyYTcUh8QitvYbq2rre3m4P67OGO1I/2ezoacjy5JL3i4T+zuLDbqKTvm4cOnv/wcMhZ+NWnz57Ja98iplrioEH+eDDP1v+hbEpD/8NKZkCusL5ra2ui0UuYpHLwf0BUSER0aERB/b5oCDw+JhzDBKVRWZALcBMPIUAQVGhKLI1JPvilZaqyouxZ4UCYVBoaHDIyYjQw7lp8fFnjqRciTt56GCgt198xJnr0VGJEaFHfDzCjgSEHjuSn5F5+thJDzfPY6dPVNZVV1RUJt9MvltaeS0n71JWdk1J9fXzl5yEQl9fL1tHPoFLPBbiH3XmhKurs7GRibODbea1yJbSSyUVCRkliZqGauraaoYG+uaGBobaGlQiTezkejQ4dOXJUwUp+RCBcojmn1H6Q/v+OamV5VUPd28XZw8+T2C9d++Zo8euREXTEcjYU6eyr12PPB1mZgo11beAG1mHuvlEubjnh0TMdjRNDnbVVJXee1B/7Jh/8AnfI17Cawf25Z2LPbDPg83j+Hl5xAQcjj/gH+Xudc4/IPfS5bT4hEBPr6S4C5eOBY7k5T4rq/+mZ/Lj9oH3Z+d+/OHbT+cez9W3Dd5vOurvB8Jae4ceiIw/ZUOBRoccTU5MjDl14kbk6TBP21uxx0fa64+4OooI1ECxR29dEwEAtbd1sLG1i46/uPb8+R8hJZFIdv7lIpVK/zmpifFJvo2dm6sXEobytOWVpSZ3VVekx5+7ERWRdzUxPjIKh6eDzEF8HClE5BTG41WFh0231FXfzbyeGB8SfDoi9NSZoMC0CxFzubln3d31NdT3aKmdOxeTHBMTIhDZGVjwTC0yo2LiDh0+63egJTPnpqtblYdPGVkwHxjzaVnTx22Pvnvn6cuPv/jq2bsTbW3FGSnFOSnZ6deuXQi+c/VMc1lud2P17biYSyePhTo5RAuEhSeC3cxBbH0zBxzd38cfjadQyQw7BycHN4+GtrbJuYWZ6fmJ0cmRkZGBgYHu7u6Ojo7m5uampqZ79+7V19dXV1dXVlZWVFSUlJQUFRUVFBTk5+fn5eXl5uZmZ2dnZGSkKZZ/TmppccVR7Oruto/L4hUmXx9pvTfUVN9SXjjUVFeTl9ZSU5abnuxmx48+sv/CIe+CqNM18ZGZcaHnQ09m3k4KOn7alsXzdXLxFfAveronB5/WU9mzd6/BpfjzcUGnhCCYJwjNNbG4m5BwylHki8flHjtxL/l6c9rNjYqqxujzfTl5D8ruxiVElZQUFOZlFmYlLwx2b431r/d3zrfd6yrPu3P9fPb1+PzbVx7czT3lLArxdLHDwazU3kYBDAkcoiETb27PE9o7+u0/ZOvonHm36GFrR0tT+736+7W1teXl5fn5+SkpKdevX09MTDx//nx0dHRYWFhwcPCpU6eOHj16+PDhQ4cOHThwwNfX18vLy83NzcnJSSQSicXif05qZXn14IHDXp6+BBwhKGDfVF/zwkjnRM/D8Z4HQ+31Q21V8wN1C4P1iwP1y8ONq8MN6yP31oa7httaP9p6r6Wh08fpgBPL0YXOJ4PMshLPI01MEWYABy7X3cVBSMCHC13c8CQXMhGmpmJvYpLi4g7X0wEBzU+fCHzQUN/c0ny/ra28saGqpPBhXcXsWN9w98OHtYVtD0qHWut6qssfFOdV3U2rL89uqspvLs19UFdYVs3EiHEAACAASURBVJi00F0/11R5J/4sG4v1dPHy3bf/yNGTwVFnyxvvNbV3tbV2NT1orq+vr6ysvHv3blZWVlJS0tWrVxMSEs6dOxcVFaWEdeLEiaNHjwYGBvr7+/v4+Li5uTk6Otrb2wsEAnt7+9+Qkren5LNhpVLZ6vrGPh8/VzfXfV6uIYfcni/0P1kc+PDx5PPVocXRlraq9N6620P3MyY77870V8yN1c1PPBjvaX5/faOjsWOgbdzD7oC7jc9xr6Mu9ozW2qLT3p7eNvyo40dOHTvAxEDJew0pZsZuVLw/lxolFsQ72TvgCGHHTproGYacDCm+U5J9Oyfl8q3wgEMRRwOWJvqWZ3o728qaHubfq8ltLMopv3OrMC+xouxWccH1irvJNQUpHflp0+nJywlXF0MSHnmFldodCSHbu1jj7TDU6rKq3v7Bgd6hno7upqbmhvrGiorKgoLC9LSMpKRbiYmJFy5ciImJiYiICAoKOn78eGBg4MGDB3x9fTw93V1dncWOIjs7oVD4j6SkMsm2TCLvJa0/fux3cL+zk62LkJZ//tR6T81cd8VUT8VQS0F3TVpnRfJib9XqYO07001Pph6ujjZODdTOjnVPDw9fiDh3r7TZluLIJtp7in1PeTt1VOa2lGbdjg1yYeEzLkYWJZ3PvhB8Jy4o2kN42pF9xJkJNddFwyFOIgcNVRUtdXUdTc29urqmRns11N4i46F9rVVz/fWbo41bgzXrI/Xzow/mxhrmxmqGu4qHWstHm+uGsnKG4q7Nn7646X/+3UMJm36xK36xS/tiBpxDiz1PDjc0DU+MjY6Nj/aPdHf3tzS3NzY8rCivyc0pSE3JSEpKunTpUnx8/NmzZ4ODg48dO3bokL+Pr9c+b3cPT1dHJ3s7ez7flsPjcWxsbH5jU8o4jnzKvGxjbeOAu+d+B4EDGnzzxL6tvrrlgdrFodrFwdr1ofqt0fsrw42LA3VrI42rg3VbY/c3Rhoe1Zdejow5sf+EiONmthcCB+PRMHTG5dBHNZmZl4Iuh/mdP+XZWp4y96h6prW8KefqVH3hmX3C+/nXuxrzKgtSYoKPnvbf5ybkiLk0dzvuQQ9x6MkDl+NO5yTF9DbmLvdVLnQUrndXrfbUzfdWzfdVPOurf7e2cutm9rOTVz44kPDFwcuf+cY/84l7eiJxNfLms+yK9ZzKpQcdU9MTo1vL02vLszMLoyOT3Y/6m5vaKytq7+TdzczMTUq6FR8fHxsbq7SpwMBAPz9fbx9PD08XF1exvYMt35bD4TIYTBqDwfg9KUV2g0wq21hcPe3pd9rOwRMKzgoPWGovm++pnOwum+2tXOipnO8qn+2rneu/N9d/f2O8beFR1fi93Ahfj7D9R2oL6y+fS9mrD7CyBHi42c/0lM/2lEx0FCwPVc/2lC4NVs50lQ425N7LuVR5K+ZBbuJgY95cd/V0Z/Vy/72Fnvr57vrF3sblgQerw02zQw8XhpsXBhvneiqXesqXHhUvdZTNtVdO9JRN9pYs3SusP3Bo1PnEolPIU9+4Z4EXP4jLeJpS+ElL109raz+ub/20sPbl5pP1x+tLHz7bev5sa+3x/Nzy8NB4V2fvg/sttTWNuTn5SUm3EhISfql9AQEBPj7e7u7Ojk72QjsbNodOpRGJJCwOjyESib8jpcwDkUllW0vrYV4HwoUiXwik8Wbs4/761aH6xaG65eH6jeHGjaGGxaH6D5/Ovnr59fZP3450NXVVFrQVFXnbOj96OPTw3mBAwKkrl+Nmx5pWRqpWR6vWx6vXxuQbq6OV6yM1j+U22LgyULPcV73aV73RV7PWW7PSW7XcXbH0qGKlp2q1t3q1v2ZpsH5psG59pHFjpGFrtH59qHqhp2qsr2ZwqGJwsLS3Oi0Uj7loia3Eih4JAkb9Ip9czfl7zcP1hntTtTUbpXXPi+8tlTZ+9fj5F5999s3fP/3ivY8fbz1fmF8Z6B/p6uytqW7Iv3M3NTX98uXLcXFxYWFhR48e3b9/v6OjWCDg8WxYDCaFQiUQSVgsDolEwtBo9D8hJa99S2vHXfeFOIjdwcCKS2HvjDxYGayb66+e769e7qtZ66+a6i6bmej97Jtv19/5aH9A0NVLSV524uhTUadOnAsIjDl+NDjjetzGaN3GWN3mRMPWZOPmRMPGeP3GeMPmWP3WWMPmZOPaeP1if8Vyd9l6e8lKV9lyT9lSd9lSd+nio9Ll7rKVnoqV3orF7rLl3vLVgaq1weq1wZrFobrp0caZsdq5keq5RxVnvUWRdoKzAPxVM2KSNa1/f/hCSOJ6zO2VqJtPz6atByUNnLz0zcJTyXc/bX/7449ffvfRB59ubT6bmpzr7RlsethWXFSelpZ+4cKFkJCQwMBALy8vsVhsa8tnMH5lhMEi0Bg4HAFFIBC/IyVT1D75t29pxU/sctLR0R5slRHmv9VXt9RfszRctzRUtzJQu9pbPttdWlSUfTWn5HhCLts9xATMoZE5XJbQ0yfI0y+UQqD11OU/7iuWG85Q3epww9pI4/qoXBsj9RsjtStjtfPDVYuDlctdJSsP82ea8yfbCqc77k53FE13Fs10lcw/Kl3pLl7sKFzoLFzoKp7rKl7qrVwZrF/urd96VP28q3LzUfXFMP+4c6dt8HABCLgfjQsAwK9huZkIXjnKoQvnNcY+Nuwd8/3K+zvbku+l0h9e7Xz15XcfvP/xyvLG8NDYwwetdwtLbt26feHCBWWT6tjx4/7+/l5ens7OInsHWy6PSWeQfzYrNA6H+5WUMhtEEaOQLM/OHBLbH7HjCkHGuReOzXcUT3fIH2D2UclsZ/FU+53JR0Xt9ypJJA4IzrKEUvSMATQyh4RheLsf8vXwDT1yYLS5eHOwclkBd3m4fnGwdmm4bnmkYXW4fm2wammgcr6vbGWwaq2vcqm9aLwpb+h+1mhT7mRbwVR74Uxn0VxX8Xx7wVxr/mxr/lxbwWxbwUxrwWx70XJX6WZ35dOempXOyksh/tfjQ2gYuOautwx1NJFWVgIYaj+CchhAOAMgp5szMmG8z+eWX0hf/rCzs/1q5+WP33/92SdPNzcWpqcGe7qb79+rrCxKzkqPu5Z8Mvba4dCzTFs+m0sTiYV8Ww6DSSZTcHgCCo2BodDw3/mp19FheT9Zsr40e9zT8ZSbkG1tUJd3efpRxfSjiomOUqXGu4qGOgoLUq/6uXhaGQKN9I0oFKy1hXVc5Hl3e8dAL4/+purJztr5/rrxR2WTPRVzg7Uz/dVzg7WzgzVzA3IHtDhQN98n35jvrZ7prhxvLx5pLhx8eGfw4Z2RlsLRlrtjrUXTHaVKTbYWKTXRVjTZWTzbUznfV7/Y/yDc382FgeOB4Ua71VV37f7r22+p7lGx1DGgW0LEaPwxY0gcEPfh3MzX219/9c23q7NLDxrqC/Jy0pNvJZyLjQoLPXH08KFDPs4+Pn6h8Xeapsrax+kCeyIFTSRh8QQ0Do/C4pBoDByJgsLg4N/5qV8SEWVSyaeffNDZUt/X2Vhdkv5sY+rTD9c+/XDtk/dXPvlg9ZMPVj94PrO52jfS29bxsLUg+25mWkZ2VmpmesrU2NhIb/fy9OTW4swn7279/fnqZ+8vbC31ZSVFJ8YePR9xMCbENzrYLzLoQMTp/eGn/M6GBcRGBEYG7Q86uu/0EblOHvY8ccjt+CG34/5uQYfclTobdDDyhF9QgMepQ+7HD7mdPOxxKnBf0JEDfAbB2lgXstcYZgHQ0tHeo6Oppq2pr6FlbWAEsjL1RGESxM61+Rm51flu3vsEXDsqnUmiMLAEMhKNUwqLw8JwtHPJ5T0r39X1rvGdvCk0MhIFQyAhMDgICgNCoEAI1BoMAf6OlDxAo6Alb4DuvHi588NLyXevZN9LpD9Jdn7a3v5RnielyNeTSL7d2f5c8uqHnZevtl/s7Lzcluy83N7+fmf7h+2XP0h3Xki3X0lfbUtevpBuf7WyMOTv7bDfSyi2JRPRFhbGmiYm2qamOsYm2lYAQ0NDTWNjbSMjHW0tVRWVv6mpvqWquktlz1t7dr+lobJLqb26Glpqb6vvfkttzy6VPbtUVHapqe5SV9utrrZbS1NVW11dS1NTz8RIba+ujomhsYkxGAziOtuEnw4oSbve3XM/ND7cxduLSuOYAWFGliB9U4CesaWukYWOoZnBXmPNvdYnYrPa574ua11kCDyQKIy5uZmVlRUUCgECrUEgIAQChsGgGAzmVz/1G1LyBJpXsu2Xsu0Xsu3fJHQqk1WliqS5l4pZxooEQ3n8b1ueeShP05NPAFHkb8p25CNtP7S3NgLMDZAwKzwGwmOTxSIbKp1gbmW811jXxHyvoYmeobGesamxoZGRqpraHhUVFVVVuVRU1X6WgZ6+cltlj4qamrqaupqquoqK2m41jT3qmnvU1FV19HR19upr6OvqGhqYmJmCoGChl8Px0IALF8MuXo0+dOKA/9EjAnsnUyuQiYW1vpG5vpG5rqGp7l4Tg72GmnutQhJyVz6XtI6/Y+Poi8Hi9hoY6enuNTI01dDQ1tDQ1tbS1dTU1tHR+QdSSiyKgT9FQqQ8UVaZl/ybtUQxMCGfEyr/TaJIF1Z2GOXD9duK9MefZNKf5HOxdlpbmywszeAIGJlCRGOQGCyCTMGw2GQoHGBkrGtopG1somtqamxoaKSmqqaiQKWioiC1R1Vdob16+soN1T2qaqoaampqaup71DXe1tDcpam1S89Ax9DQ0HCvXBbm5gAAAIGAu7s4ePk5HQs9cDrooKeLPRQMNbcAACytTE1MLMzNLczMzUxMjY2M9hrq6piae5+Orx9+XNwyzrBzRGEQxsZm+npGerqGOtoG2lr6mhq6Ghraenp6vyOleFzlkytSbJUJvHJav5NEnrEjT6NVfijlIx+KuSRKaK9ksp9kkh9kOz9It19Kdprb2kzMLQAgMAgKw5NIVBqZxyUzGViAhb6luZ6psaaJkYaZsYGJoYGGqoranj3qKgrt2a2xe7fmbvnaSFdHc/durd271XeraKqqa6qpaqrt1tJ4S1/3bRNjNQszQzMjY2N9AxM9fVODvWZGxkBzcyoMymLh9h92O3LI/cg+d08n132engF+Xvu9XN3EQgc+211s5+vh7OvrzHEQhFxKGXr8ZcfME67YEYuHm5qYG+gb6Wjr62jra2vpaWnqaWho6+rq/gMpeZxU6a1eryWKhPXf25XioJ99mry3+PqUn//KB9jkmdlSyY5E0tHRCYZAMRgcGAxlMFkOIgdnV5GTs52FhaGlpeFBP7ejh73tBGQKAWZioK+rpa+tqa2quktd82+71f9nt9pf9qj8j66uqpbG21qqb6vv2aWprqmhpqajrWFqYqCvp6ars1tXc7eZgSYCaEZCQ20YRD8PJwIaAkZa4OkIZ0+hu4fQQcA4Eejr7+3i7+18cJ+ThyPf2Y7lJGS52LNdnHgObk7nkwuGN795NPMOX+zBZFBseUwSHgWDACzMDI0MtHU0VXS0Nf7Rpv5F1P3f+EkqlUokks7OTjQaLRQK7RVLdHTUxUsXLl2OB4GtTIwNnJ3sBbZsIgmJxsKwOAKRxMARyGgcBooEWSOgZtYASxDQzNLMzNxIV0ddS1NVS0NdQ01FW1NVV1vdxFibgIc42rP9vV3CTgaEnTzk4+aQlHiOxyKC4RZYAoTDJXBYGB4TdXi/yF3M8nYVuot5jgKGUs72LEcRW+DkkJBaNP3uy+HVT0RufhwWw8fLxcPVwdvTydVJKLbnkQlIKwsTIyOj39nUv4HjX5yiILXT1dWJQiExGDSXy+HxuOFhodeuXSkquksiE80tLXi2tvLYj6sLhkbD0zlUjoDC4tF5NiyBLZHtyOC7swTOdI4tTyCwteM72PMpBAyfQ8MgrQkYEAZlwaDB6SQYl45xtmN6Otkc8nEK3O+KgVvo66pZmOgJeSQ7G7wdD3XkoMDDiX5wn6OTkGnPo/CZeAGb6MCn2gloLAEv5mbuzHsvRtY+ETjuY9KpPDaVzSA6CDkOQo6Xu9hZbOvm6igSid4oKcnOzsue3i44AoJGwyEQIJGECwg4eP58XHBwCJXOROJIfLGbwNnL0fcwU+zOc/bgiBydvLxZfL6doyvdxpvJ34ch8zFEOoFMYXEZbBZZyKE427P5bLy3O9+ejzt22MnFgX48wMNRSDt2yF3IJfh5Ci2M1I10NHXV93BoOAGXwGUhRPZ4sR1ZbEvn0jBsCopBhHOoaC4dy2ZgGDbsS+klG19I5975xifglIDPI+GRVBIaj4HSyBgmDU8lodFI6O/a6P/COv69nxT/H8XL4ZE+DBYhdhQSiGgSGevt7cFmMMFgGJHCsoLh4SQbEJEHpQpgFC6ezSUyaY6uIrGjPZNOxxJZNCYfhycTCUQalcBiEKgEmKMthYA049FhAg7ChgkW2aK4dCiTDKERgFQ8gEmG2DCR5oYqepoqarvfYjLIIrHATsQXiGzEYhsXe7aXs61y7ShgYGDmaIQFmU0/dyt/5t3vh1Y+8j8WKnawA1ubKkUhopg0PAmPYDLIWCz2zdrUq+3vx8f7cXi4DZ+BRIHgCGsY1BpsDQIAIGAEwRxKMkMyzbF8SxTbBISygFgTqSihLZmOh7GJaDTKkscjhAb5H9jncMDDLuq0v5eIdWy/+MKZwEPeNgc8mUFHRccP2QYetHdzpB30EZw84hoe5HPQR2BmtEdLe7eqpgoQDsNQGCAM1QpFw1HotiyCPY9ixyXbMHAsMhIHt8SirIgMSkh88qOFj1vHHvsFBrk6O8LAFkpRiCgyAUkhonAYxP+r5fnvGc//cZbCof80Nt4PhVlpaO/RN9RQ13xbW0NVX11bX2cvFIGBYalANBVJ4kPQdAsgVHevhiXAkIAGm+upm+vtwSKNXMTU8NM+AhY69Ni+CxFH/Vz53s6cC5FHnAUEP3d2TKhv0BGn6PBDgYfcHB3ojnZUTxemryfb2OAtFY2/auqokihEGpOHo/KRFHuWjYOzA5eABlFwMDsbuosDj4gBk0koAp0ed/POykc7c0+/8j8aIRY70ShYBhVHIaI4TJKLo8DN2c7ZycHZ2fkN2pRi1vbOyPAAgYjQN1Q3NNYyMtbVVlU11tAFWVmJHO1cPZ1dXES+Hp7enn40OsXCWt8KaGltBTczMkIjTDAoKzMTDRDAAAgwIBOhOIw1AmJKwYJQYBMkyAQHt0SBTUhoaxsuRSjkkokYHpMg4KK9XPCWprv2qP7F0kTTW2x7+qC/r5uPu+chNlcAh1hCgGYIqCWdjGXS8AQsjEjG4mjMyIsZo6tfjC1/cvBopMjRlUHFM6g4GhlDJaE5TJKQz6RSCEKh8M2SkkleDfa3iUUUNgvMZIKZDASDguayaDQ23RqFtEbjgUgSEs2EwMhmAEtt/V06uuraGnoGOtqG+m8bGuwxMVI3M9E0NdYwNFAFAgxwKAAJDSShgXiEFQ5u+XoDDcJhYGQ8Sixg2nFRPm4EBklPQ+0vEIDefk8XsVBMZ4tQNBGWxqFTkWQilIADEvEQHNqaTIQyaCA8A38k/nbD7N9rhjbt3LzYdBydglFWOjwGikYAEVArK0tTCoXyBkkpPPpPA72Nns44b1eklzPS3ZkociDZ2lMZdhxdEEwbRNQHs4zBfD1zojkEagbQsTTXN9U3sjTeCwToWlnoACz1rCx0zUw0TYzUzU21YCBjFNgUAzVHQ8xQYFMszAIFNsWhrVEwSyIaQkQCBEyItzPazcEKDVPn0CDurk4IDN0aa6MNZoIJdKEtic8j8Hl45VpoS7LjIKgcxsmksuZ3d9o2vuY6eFAxIAYFQ8TBKUQUAQvDoSFYFBgGBZLJ5DdKSroteTE+0uzvjg3ywwQdIJ44wN7nQfEJsDscflwbjFEHs9SAfC2QUNWMYgrH4MkQEsaagkSSUDAcxoJEABPxYBIBgscCiXgwhQRjUlFsCkr5pbdh4PhMvC2LIOCS7HkUEY/qaEPy92D5OMLd7czFNhaBB+0cxPYoMhdIsNUFU5AUBoOGopBgLAaGTkXSyHA6FcEgwLAEhndkblrrJwXtH1A5+4hwJAJsCYe8FgxsAQGaQUBWBALhjZKSvZJIJobbD7ugrwVza9KO+zthXB2QYlcciUdSs4CpgzmqYBsNKF8FwNoLw6Px1iS4CRUGIiMhBJwVAQckESAYlBUUbAyDmCBgZmi4BQ5uScaAqDgIDQ+lE2AMIpxFhtkycfZsgpiN3e9EcuNbutrs5VG0WVQrOBJKZPLhRBYAgbUEWBnpa1uZGYKtzRFQawwSQiFiaBQ8jcmlCXxdAxJ8j17GkQQYJA4Gtvzl8wcFmctJga3e9LdPHoKZHusJ8aJcPkxJPMY+6kw85EH186XZu/D1wdg9VpS3AWQVIOmvFjQTLJ3OxvDJICEJwyNjmQwkg4akkGA4jDUKYYFCWKARFhiEBRZmQcGC6QQYk4RgkZFsCopDgdtQkXwKUszC+DuT99kBnLl6fKoWGqppYmpgZGZhYmoOMN9roKmi8tYebTUtfS09bTUtjT3q6nvUdI01sRQQlQrjs/BMOhZDRCBJSBQShFEIjQAiYQAE1AqJgKBQqDdqU1LJ9vbEcLufI+KwK/i4J9bbFu0hJLg7k8UiOhRpbQ0HgZAQGA4Ow+CIFJItB+/IIziySQIGnktD8ihQHhnKo8BYBBCbCOaSISwSVGFESAYRziQhKFgwh4amEIAsKphDAboK0c48gDPPyJGty6Xq8JkALNIKYGlmbrIXZLVXU23Xnt175NGcPSraWlpaGhqqKnv0TbWpLCSXARcy4Rw6BEcAoEggHAaKVwiLAiuFRIAQCMgbJrXzYnSk1VmEcBWD3ezhYjbanoW3YSEZZBAOaULCmFPwVgwSkIYDMnCQX0TDgGgYIBsP4uBBbDyQiQWw8UAOHkjHWPPoWBoeSkACCEgAFmZBxoJwaCsGFcqiAsV8uB3L0p5hxMapMQja9jyYl7MNnYRj0ckWFgbq6rt2vf2/Kqq7tLTVNDRVNDRV1DVVtHTVcTgEk4K1ZRB4DCwOD0BgLFAIazQCiEYAUfDXG3CYNQYLf7OkdiSSwaFOPh8ldkC7iklCNgEHA6AgpmiIGQ5hiUdY4ZEAHMKKALckwCwIMAs81BwHMcNDzeXbCCs8AoBHWGFgFmiIOQJoDLXaS0IDkSATBNAYATRGgkzQEDM4yAwFtSSiADScNcJKkwDVYeKNaBgDNhngYsdkUfBuzg4GBup6emr6Btq6epp6+lqaWqq79/xt956/aeiogkAWbCqeTydw6Rgc3hqFs8JhIEqbUtZBDBKEQoLwhDdc+15KpN19j3BECBJtCrLWh1gbg8yNYABTGMAEBjBBQ6yUwkEtMCATLNgUCzZFA41R1kZIayMoyAwKMoeCzEEAE2tLI3MTPTNDTfO9GuZ71YFmulbGWhaGGgATbSjAHAkEEBBQEgamo/pXPfVdEAs9jb/9BWKuI+JT6SSknS1LX19TVW2Xto66jq6Gto66lraa0rg0ddR0ddUJaAgFDaHgwFgcAIO3JuLhZAKSTEAScXClSEQ0nfGGWwmvJJKWtiZ19V17dv+Pyq6/qO36H83d/6ur9pae+i59zbetTfUgloZIkBkaZIL5WUpeGLApCmqBglqioBZomCUaZoWGWWFglliY3KkrW1JYmAUBCSChoBQMiobHMKlEQz1NPV01Ghmr+pe/YMGW+1wEHAbWlkfT19Pavftvmlqq6hp7NLVUNTRVdr39VzX13Wqae7S11YgYKA5qiYKYwuAmaDzAwY7j6GAjtueJ7LgiO66dLYtBJzKYb7LlKZNJJJKferpbYdYmCGtjDMiECDOloCyoeCCNCKKTwHQimEGCMEhQDhlpQ0XzKCguGcmjoH4WgkdRiIqwoSJtqEguRf6949IwPDqWQ0XbMHDyMBOX5shnO9vxnES2ew21rMEWXl6uOrv2MHCYw76uDgKqvZCpr6elsuftX0hpaqm+teuve1TeUtXcra2tyiBhsBBLJNjECqCDwgHshCx7AduWR7fhUBlUHJOGh0KsQGDLN+inFIkA3w32trIIcB4BzidCBCSgDRnIpoG5DCiXASNiTPEoEyzCkIiQeygKytqGihYycXZMnB0D68BAiBgIh9/IjoGxZRH4TLwNA8emoHh0rLzlySbYcUgOfJqDHVtbV9UaZuHgKND+mxrcwlLIIQltiCJ7lr6e9p7d/0hq19v/q66loqmp4mDLFvOZNiw8i4WlszE8LkVgQ7e1ofN5VBsO1YZDYTFJbA79TZKSj0D8MNzXImYgxFSQAxUkIIG4RAgebg610oda6UMsdJWCAwyQQCMK0tKGDBVQoPY0qIgOd2RhREy0mIVxZGMdmGgRE+3Axgs5RCGXKOAQ+CycLRsv4BDsuGQHG6qjgOEq4gDM9NFwS0d7Dg4FJeORlqb6MLA5n0szNNDcvfuvGpoqKqq7lB++t3bJv4PqGns0NFQ9PJwdHGwFAo4Nn8Xl0W34ZBs+xYZP4fKIbA6eycLSGTgu73fzp/6P6Mm/vVuesPKTnBQT7kgDiWhgARnMJcMpOAgBBSSigUQ0SCEgDQ/hUlFCBsaBhRazUE4shDNL3pJ0YKBFTIyYhXVgoOVi434hpcQk5BJ/JeXA4TPxHCpaJKDTSBgXR4GFqb6ZsS4aAdTXUdXU2KN0Uppaqmrqe97a9b9q6rtVVN9WVdsNsDZHoqAisZDLYzJZFDaXqBSTjWeycQwWjs7Ev2FS8rDLi6H+VhET6ciAiulwWyqcS0NTSSgKAUHCwch4uEIwOgHGJiNs6Wh7JsqOCrWjgIRkEJ8E4RHANkQInwTlEcA8AphPRdgwsDbM1+KzcAIOQcCRwxLxac52LBGfxiIj7W2oMLAF0MpYW+NtcxN9NAJoZKBlZWWsqaWmraOuorpLW0fD0EjP3MJYU0vVwtLEmqgHowAABANJREFUCmBmYWlCIuNYbBqFSqDRcTSGXFQ6lsaQY2IwiW+WlDxTUPJyaKBDyEA50OEiBlJAR7OoGCIeRcAhsBgY7rWgBJQ1j4YWMuU25czBuLBRv9iU0prs6Sg7mvx0PhPHZ8lly8YrzYpHxyhdu9y721AZRDgVD8UiQWQCUk9bFQEFwCGWYGtTChlDoRKAIEsjY30zcyNLK1NTM0NDIz0jY33lBhwBZnPoTBaVSsOTKTgSGYPDI0hkDJGEplDxLDb1Dfop+X9TINkeGngk75eRIXyK3HDIBCQOJx9JRmPgr4WGkTBgPgNrx8Q6MFEiBkLMgIkZMAclHQpcQIHbkmE2RAiHCGWS4EwynEGC/SI6Aar8IHJpcn+Pg1uaGqiZ7NUGWhlbmOoDrYytLY0szQz2GmjqG2gruZiZGwFBlgBrcxPTvaZmhsrJGkQSlsNlsNg0Gp1EoeIVkxZRGCwCT0DDEWAI1PqNkpK9lEgG+rtZJDiHAGYRIGQsGIOGYjAoFBqBRMFfC/malC0dLaQh7GkwBxrEgQYVUGB8ElQOCAfk4IBcPIhDhLLICBZFrl9IMUhwLg2jjMDYcclElDUWYUkmIOkULAhgYmlmYGlmAAKYAK3NLK1MrQBmVgD56KGJ6V5roAUMDkKioFgcEk9AM1lULo/JYtMYDBqVSiaTCUQiHoNBWVtbWViavGFSUunLnZ3+vm4GGcMgwOgEOBELR6PhaCwShUGg0PDXQslJyZtOJBiXALYhAPkEaz4ByKfAbSgwLgnKJoBYckxgNhnOIKMZFAydjKYQEL+ITkYzqTgqEUXEQgkYKBoOxKCgaCQECQcjEWAYBAACWkDAADDY2hpoCbC2BAAsrAAW1kBLGBxCIOIYTBqHy+JwmRwOk8mkMxh0Go1KoZCJRAISiQACrXE4NBQGepM2JZVub2+v/j/NXdtuwyAM/fNEUZtkK1Do0qnbh/VT2g5smso4EKJ0W6Uq046OiMXFkPPEg22OR2O0lMIYbQjKGGF2GY141+1B1wddf2zrT7Uiblf7t5rZ7dZMoxspN1KK6E0Hn9wapaQQGyXlK+GF2UY0TVMPWCe0bauU6rpuH9Fl4KSRqqqKoijLclmlENEFAAAOcIhfU168O3t3Yl7hzPRwYqKLBl58RPQ2fnkL7z0AxFl+HEacd0IAIqbjJQOn8wFgWaWccwBgrc1PgOhmTDqO/+MBByJSSFYYSZl4uQRzO03LDb4X5j2crMYKcn9S0/shb7Lve0S01i6oFMX4PYbwBgHlixP50QWO3pq2vzp75I78nZMf1vKSZZW6s30KJ82M+elJOyrcMKG/4+7vuv6FUkEQN1SJurqeamBRqWAgukgIZc6fyk9/Rtcb9ssqBY0o+0sAAAAASUVORK5CYII=;strokeColor=default;" vertex="1" parent="1">
          <mxGeometry x="-303.9999755859375" y="-319.00001220703126" width="99" height="93" as="geometry" />
        </mxCell>
        <mxCell id="w5DbKVON7oJ_gciqgCdb-3" value="" style="shape=image;verticalLabelPosition=bottom;labelBackgroundColor=default;verticalAlign=top;aspect=fixed;imageAspect=0;image=data:image/png,iVBORw0KGgoAAAANSUhEUgAAAG0AAABdCAIAAAAg4H+sAAAgAElEQVR4Aey8d1RbSZr3jzE555yThIQCkkABZUAIZQlloSyEIiLnHExyztk455xzd7vb3XY7twPGph3adnfvzO7svDPT3QZJfg/27Px23z172LO75zf/bJ3noOKKKhWfep5bdR/d+/X48L/lf4KAx/9EJ//bx4f/5fg/4wT/y/F/Of7PEPif6eW/5o/uDx/+H/tvjMbt/vDv7b/R33/Q9NOA/4M3/9uH5+HomnU6Z2ZdTpfL6XK7XG6X2z1Xm3G7Z2adv7k/zM6Ze9Y1Vz6+73J/Kv/Pr/8Cyu3+2MW/+elyul2zn+yDa+aDa+Zj3f0vTf4K+W8dOp2u2Vmn0+lyOt3OuXYf3M4PbufcwNxzL7MfB/Bvp8bldDp/fT/zy8zMb//GAf7b+P7WwXwcXXNDmJmZmZ2dg+WcKzNO13un6zeX+737w8wnm8P8H5RPWD99nmvuv/wXZp8qc62ccwjmbG6WPtnfxvfvK263+2+DmWPt+vCx6ce+P07wX2fyX73Mzr6fmfnLrPNX1xz1fxVL/773/+qReTjOzMy4XK6Z2Y8gP7qB0zXrds84Xb99Qulyv3e538/Bdc5+pPnRdT868Efos7OzM3OkPnmy2zUH/sO/NfcH50ebdX9wfvhocwj+P6Z/q38C8JHj3Lx+7N/pdrs/fZB7bl7fu9y/uf9Kcy5oPpnT+euvv/1p1vnr7Oz7vw/HWZfr/sPv0DhsZk52amZGQnJSfGJcUnJccko8rqhQqZIpVTK1RqHTq3U6lUwmKqVRMzJTMzPT0tKSk5LjE5PiEhJjY2OjomMiomMiIqPCwqJCQqOCQyKDQiODQyKDg8MDwyJDQ8JDQiPCQsJDA4ICAoMDA4MDg4L8g4P9Q0ICg4L9Q0IDAwP9goL8QkIDQ0IDg4P9g0MC0tKTRSIBj8/Dk0h5sLy0rJTE1NjEtOiElKjEpIiEpMiExIjEpMik5Mik5KjEpGgyuWjm7xjXvzpn7zx8AIJDc/JAQAgYiSlEYQqoxUQyBc/lMSuVUqVKplLLNVqFVlcpkwvp5cVJybFR0aERkcF/s5BQ/+AQv5BQ/9BQn9CgBSGBC4IDPMKCPcKCPcNDPAP9FwQHefn7eYaG+ERGBMTGhISG+ISGBYSFB4ZHBAUF+4aEBgQF+waH+AWH+AUG+fj4LvDy9vAP8CaRi8RyEZ3DQGAQWeDMpMzY+LTIhLTIxOSw+MSQ2PigmLjATxYdG4TFotzumb9bXP/icj75fpop5NP5nGJWOUciZAu4EmmFWCLgC9h/g/iRo1xRKeRwyzIyEyOjgiIiA/9mYeH+IaF+4REBcVF+mbG+haB4Gi5Xxi6SsQs1FXghE1MITYVkR6fE+CaEe6bEeGckBMTHh8XGzVl0TEhUTHBMbGhUdHB4REB4RIB/wEIfXw8vbw8AME0oFwpVYiKdBC4Ep4ISYzMiErOj0rMiU9LDEpKDYuL9ouN8o+N8o2IC/s4cf3W7pl6+ECikLHEFRyZiiPg8qYgn5EnlYg6P+dETK3V6pUYn1+rlKo2EL2BkZSfHxIZGRAZGRfhER/okxwdAgXEVTEyzXd5hF440VuxdXX/l4NjVw+NXDo0dWNe8fsyxYtA+3mtuq5HKuTgKOqMgLy49LTotLSY1NTo1PSYxOSIhKTwqJiAq2j82LigswtfL28PH1yM8IoDOKZHppHw5H0vFARE5ybnxqeC4LEBMelZkclpIfGJAXKJfXKJ/bFwgFof4eB7/2zrzcbP1X11V/n27edaZWZfr+YvvlTotjcMSquRlQi5fJWdU8CvkEoGkQq1RaHWKKqNSZ1DqqzR6g1qhkBQg4fGxUbGRYaDkIEZRtkWM76um7xnW3z82/OLS6m/2913b033z6KIzWxu3j2smxtQr+jTdtSKzstggpxgqaVoFTSaklJIKYeAMQGZCZlZCanpMQnJEbHxQSlJwcmJIUkJoUICnn4+Hn/cCJBJQVa1QVEpL6eX5hcgsaHpKbgwQnAwEJWZmx6akhccnBsclBMUmBGCKIC73by6Xa26dmSuzHz64/j2O//KReTg6Xa6p58/ECjlHLCwX8vhKWamAI1IrGXyuUCbW6lV6g7LKqKyq0lQZdWaTXl0pZtCIKXGh2PysTlP5um7lrtGqw+PmS2vqLq+qvbt34Kfr2x+cWnJyXe3JTfV7lhmXtHJ6a7j1+nKNACekIxiUvHIqjEtHS3k0hZBZQi6E5mVk5ySmZ8VlZMWkp4alp4anpUREhPp6e85xjIwMVCj5lUopXyjAEDFARE5aXgIIkpILTs7KiUtJi4hLCIqO9Y+K8UVjwe4P7z9uSj+x+v+Xo8vt/v7li3IOu5zPIdBLCOWlKAoBRSiCFaLgBQiFUmK2GMxmTXW1zmwy1FgNJr1UwiHxaahVg7aTa62nV5u+nGi5vKb21rbuq8vqjw4YD45Wn1nXtLmnsreaOuxgtGiKtOx8CQ3GwgPKi3LpeBAFAyAVAkpw8HJyoZhbwirDowuAOYD4rOyY5MSglKTQtJSIpPhwP+8FPgs9vL0XEEgFGl0lX8QhFOPzCsEZkJSM7NgcYEIOMCEzOzY5NXzOH+MDsB/90el0/t388eHjxxBEfnpuThoYkJybnZUPyQDnIrCF8IJ8eaXEbNFbrDqz2WAxVzksWodRVG9gHJ/o+fr4kkcn+h8d7X18eGDy8Ojtbb2XltTv7zKsqRcvsfM2dWk29+tb1eQaMVqAzyqFJZHzkvDgRBw4GQNKQYNTUcAkRE4CsSCXTkGVFRfkw9Iy0iOyM6My0iKzMmIyUmOCA7y9Fnh4LvBISYk3GCsrJCwKnZCPy89F5n6M66RsQPwnl4yND4yO9fvE8e8X127X48kn1LJSKoNO47PpQh6tgitQyHgSkVghUarlVpvRZjdYLcY6u6nRpm23S07v6Jn6Yt2rr9b+7trGHy6sen1+zdNjy7/a3HtiuGZrs3qxSdCrKe/Rlg/bhK2qUgMTIcLnluQlk0HJRcBELCCpMDsJmZmAyIrNSw3Py4gsgKZQ8CAyHpwHigcB43OyYkHApJzMhITYcK8FHl6eHj6+XgIhXabiVMiZWCoWioHnABOzAfGfXDIrJy41PTI+MegTx79nXD99/qyUUc4S8hlCHk8pZcnEQqWCLRRUSEVavcpRa66tM9ltpjq7ubVWN7Gi5fHV9T/d2vT6i6Uvzq1/dnr91Kl13+waObm8cWePYW29fMwo6FGVd6sZjVKqXYBXlkC4qMyS3CRSTmJRViI2OxkLSMMC07GgRBQgFpQSAkgOggFjkNBEbGFWHigxIy0iOzM2PSU6My3e32ehl6fnggUe0PwsXbWwQsEsZhXDcSgoPPMTxPTM6PTM6JS0iL/F9d+N46zT+fz5czaPW0QmVShkND6bVylliAV8hZwjEqt1+rrGGrvDWGM3N9iM68eabp5Z9cepI+9ubrm+v/P+/qGnx5Y+PDh+fUv/qfH6bS2qVdX8QWFxIwNtZ6AdXFJVKVqEzCkDJuLSovITI8AJUYDYyLzEaEhSVF5GJAKYkJcRlZkQBM6Iyk4KRuYmoiEpgMzIudDOisvOTIiPDvFesGDhAo+QUD+1jitVcXhiDo5KyMeCAdCUnLwkADghNy8hCxCZkhqGxea/n/3lV/fML66Z9+7ZWfeMy+1yzmUFPl2Eulzu2VnnzIzLOfsp2zGXjnnvdv/Z5fqL2z37wfWXD+4/uV1/crt/dbtn37ve/+b+9dcPf/mL848zrl+cszPzrNdup2tqaorJYhEpZFJpMVcqYkoEdBGfp1BwJZWSSnVTW3NNXXV9ra293vLZkdV3zyz9y7PDTy6tvLi17fburkcHh74/ueLuzuFNDqmNlCfLi2dnhpakBxMzQhRUWKO4zEAtKAPEFyaFZUcEJoQExgb6x/l7x/kujAnxzEwIzMuMAqdFglMjMmL8oKnh2NwEGCA2MyMSmJuUnRmXlRwd6LXQd+ECHy8PIgVebVcKJFxqeSmCCM9FZGbnJWWBYnNyo7MAEenp4YDc9JWbV2w6tG357rUHLhw5dun4+auX9hw8tH7LlhXr1owsGRtfsXjDxObFa1Z3Dg639w51DQyOrxg9fm7v2StHNk2sW7Nm6MqlvSePbdy2benW3eu3Hti48+TEnvMTO05tvDt53eX8ZR6OzlnnixcvBBUVJCoFTyFRWXSWtIKjkLAkEr5UJalUt3a2NjRbW1rq+todT785dOvE6K1D3Y/PLDm12nHnwNDzs6smT6za1qbRFwHK08MI8YGIeF9Q7EJQgudgvfSL/cvWNKm1JAg+NRwcHZwaEhDv750S4AUI98tNCIRnRBQC4wqBcfDMyIxob3BSMCIjEgFOzMmOyQEmAAFJEEBqZHCAt+fcWTIhKdxoVYorhXQeo5BSACnMzQInZYHic3JjgKAYADg+GRiLKkOWqOk1443d6/tUDWprV71AryRxGRh6MaqUTBGwedpKIpsNRhNgeGouGgclYYTVYplNRhPRilkYtgBTZWOZG4VcLYWroZdKiLp2eeOoZe3E6MzMP8/LcfbZs2eCCgGVVkqgUgpJeLqQy5QJWRJpOV8skis3T2xes37J4GDnyEDT02/2v7mxde+g+Nwq85kV9skzKx4eX3Zyeb21DFYBTRTkJZMSwnFxIahYPw4y5dz63hdntny7sXeVSajAgqg5KUXZ6ficDFJOajkkg4XK4WByaYhMUl4yBhCbm+APSQ4BxvnDc+NzcmLSMqJyshMgOSlZybHenh5zKH082QK62lDJqGCgqZj8IjgQlpEDTsoCxGTlRKUDo+LAkVghlqQrad7UNbx/cce6LrpBACsn5DPJKE4plE7B8FkEIb+ARscyeHiOKJdIBpCxORRYMi6DJCWbOnXGFmnXUuvgpnpJY1mZikyvpAhsDE51iaPb8Ov7f5yX45w/MlksPIkIK0DmwPIyYaAsBCQVBE4HQiCIgsufXz5/6fjmrat3blt65ciSuycGP99g3t7MPLu4+vmZZc/PrLi7b/jS6rbjI/UTzVVD4vIuGmFUwjg5UP9k9/I3+9d8t6xjTFysRAPoual0aG4ZBMiGAUUFuTIsWIzOZSMyiyFJBHBcXqIfKMEvI3IhDBgHhaRk58TngVJBmYkQQGpwgJef94KFXh5gWK7BouFIGBRmMYaChaBAuZB0IDgZkJuYCYpPL0xhm7ilFnZZDV/QKCvR0QsqiHAuAS0uy2OQMkhYKJOOEfBRJcV9K1e3L1lOEApyaVgQC5VISOHVcluXNw6s7ajpryKIkYUSKJpfkE+HVbZKCRKMo9f83vWn+TjOzH733XfA3NyU9LR0QHYWFJyWB0iHggh0OqWcwxVKLly58MVXF3bsXr9z+5KTO3uOLNNcXqU72ME71CGcPjrw6uTIu3Mrfzi1amr/0sm9y26t6Ttaq1oqLu4oR53stWy3SDWZMWpQHD8nhhAXQs1KKc5Opeckc3NThOAUfl5yeW58KSiOCIqBpfqD51AGouFpiPx0cF4qJC8dCkyDg1LjY4IXLvBYuHBhSHiwXCOSavllfEZRCQGFQ+bBc3LBacDc5GxQUi4m19xrlzRpSBoGRVVOltPoBg5WQoWzCRlEVG4pJY9GL2BxMFQ8R1YhNmgQdGJeOVLWKa8a1VQNVMocFXgmliFjIOkFOBGeVy3OL8dkkIAQen6lXf2L8/08HGdnZr///nsWm00pKaaUlVKYdEwJCV1MIjOZTIGEIxQfPXXsxu1rew5s3rVj6ek9/YeWqPd0MLZZyQcaWPc217w42PXqUP+7Y+N/urT5p+Orz/UYeul5VYUJFZDwJgF2fb1qUMYwFmaLgHFcQHI5IK0cmMECpgpyU+SwdDk8QwhPY+QlUvNicbkRqOxwVHYMsTAbDkvNBSVlpMcg8jIhwMTszFhfb8+FXl6ePgvx1MIqh5Ip5hJplCIyDo7MA+VlgsBpcASQJ+Ora41FQjqSSybJGLwqmabdyDZVECR0cGkRlFZcyOGVyhRFpMKConw0FQvEghEsVNWQtm6F0dgnVdaKoTgoFINCUPACk5JjUCahQNlkRH55kdyif++a7/tr56xzenqaLxCU0stKGHQqq5zCLMOVkNFkYjGLyZWKV2xY+2Dq0YFj23ftXXZ47+jZnX3bWyt6i1O3SAo2m2j3t7Y+29/z/f6epxOdny8yrZET7egEPSqZlRmpwcHX15iGRFxLEVIOzRGCM8szEinJMdTUmLLMWCYwXI3OVsByKnLTGeBEIjSiABSCRyTTKZACeAoMkgQExMFhGXBYMgyaGBTk6Rvg4enrEZcaWeXQVKhEJexSDLGwEIeEQAEkMtZk1TV0tasdDfCyUigLjZFRBQ493SRhmMVFsnJACRpUgieKuFyNklpCRKAQxFJaIZVaWEbhm2RIBjYHB7F0NYqqtTnoAiAWSxVWUCsqclCoXBQKTSRXW+0z/xmOL1684Av4xWU0allpMZtBZpQVs8rxpVQslcQSCboWDUz98OLk2UO79649sG/lucMrbhxcss3B36wr6WCC97YIn+3vfbSj9YvFxoMNwv6yvJqC5EpwQnFCGDoqrCAiDBUShAr0g/t5Q/19wP4+kGC/gqgQUmoUNzfKgM3VF0DkMICoIBubHUCAR4uYWDoZVghPQ8DS82FZcHh2PiQVBU9PTgjx8fHw9vHwC1jIF3E0Fm0xqxhHxiAKobQycl29tXewvbm3ra6rnyriwZgItARLULIRQipSSMlj43NKCgEUNIJBLRHzCGRcIQZNLKXnoXGpMAhBQM+jFAJwKBgVz1BKszGoLDQSwyzD0svILFYBkYwmkk3Wmtn5Oc7MfvRHPp3JKOewiPRSMoNGopdiqaQCYlEBsUiu1zx/8+ri5bP79m49cHDzoQNrD28fObGh+/B43fmlNdfW1V9cZrgwrr4wot1bLxhmFzgKMpWQVFxUMDImHBUXTslKVBTADXicgYQXo2B8RB4fAREVwrSYHDsVYSYi9AS4DAeg5kUKS6BiJpFQAMQiATBwegESDAZlYhG5BeB0WE5KsLenv/cCf19vGDzP1GBkixnkMrxcWdHWUd/b19rZW1/l0DR2dq7YsqZ53M400eA8HEpMhfEIOWWFWVQUgIoBkjE4dhmejMWRikBIVBIIjKRR6JqKQjYZTERnYeAoOgnDomRhIJnoPCSFwJZJqVwOtrTEYLfPuNzznB+ds86pqSk8AQ/MA2cAc1JzsxOy0pNzMlMAWRlgYDYUjKEQHzyb/PqbLw8e3L334MTew1v2Hlg7sXFooEm9o0f53aGhs8v0a6zEKyvMh7srNxoYHVS4CQOWIHKr6cTVLZbjK/tOLh6YaKkbUIhM1CItCa2jYqtpeGsxqoGDryqB6+nIMnh8eWGKqDS/nAgvQuZQi+AIWDYyPzczMxEJzkQAU3D5ubHhgT5eHn4+XmHhwTq7Wm2WV9do27pqu3sbG5rMFofS0Vptc9SsWru0a8RGFiPzWEgwGwPnE/PY+CwqKotUACAVFnHKSlkUSAE0E56Xi0OTJewyvQBCKwTiETk4KFlEZ6i5BAEJSUehS4rQpWQsqxTNLO1eMvKbyzk/x8nJySJ8ERqHLSKTsFRSEY1KYZRRmXQqk04up+GKyZevf3H33rdHj+3be2THvhM7DhzbdvjQxmWL6pc38CbPLds/LOuRg48sqjw1atzdIFkmo3awsB3CkuOLO7/YNHxucePeFuOIhNlYgrGTkPVl2FY+tYlHruWQdDSEkAogIaMLIWEERAKLnCfj4WUCkoRPJuEhGHQuEpmDQmQUojJQyMz0jChvfw+fAM+FfguoHEJ9p7VzoKGxzWK1qxuaqgeGm3sG22rMjoHOjp5eq8TEgDAK8rg4pJBSKKZlUVGpWBiQjCHwyukVJbhSHJlbjmOXUSu5/NpKkrwMxykGkxA5RblgCqhYTuIaGQwpA4yDZxbB7aMd1x7f+sX52/wcp6en2RwOpbSEQisll9NI5aUk+pyRy2kEWjGBVjyxb/fjp/dOnTtw4MSO/ae2Hz+76/TxiW2r+8ZqWes6+A5euo4avqGZsamRt72pYm+TaLmOtqKKs7tZdapHf7xRtMPIGecT+8vR/SzsiIgyIqW2MtFyEowIjYPmBRWXp9NZuUuXNJ47sencsVUHd4/u2Dq4ZlXHkiXN9Y1qXTWrQk6Q68tKeYVgTEZcVpRfjHdGXrKj3Whr1FVb5W2dtpGx9uHxzsHhfpPS0lvb1lyrbxtyoDhkEKuIqGbl8ylpRHg6HgEkYwoZVKaURmQRC+lEWGlRkZSOV5aihWQMiwwkQCDFEJa+jGWgiuzlEoOwoBQPKC7QDza2rRz6i+vXeTjOzsw+f/6cy+MRKWQcmVhIwhcQcYUEDIaEw5HxWHJRIQHTPzzw8odHl68ePnR8y64Da3btXrFj8+iqRQ0DNcwGZWGtBGJiprdIoIMa3IC84Oqqmrs7+48NGPY2VBx0sI/YyiYqqWsFxNUC/BIeupcBq0Yns7KC4GkhuIK0+jah2kFVO2gTB0fXbOxYuaquu09d1yzQmkr0NkYpF8pSFJL5eSUSVBEHSpXgyOKiVFRCHDhUZKSLDGWmJnnfkobhFR09Y01rN61ssLY2Gupb7CZ7rU5h1RHlNNOQg6JkpxflZxELEawSqkKgqdPSZWxYCR5OJ6MExSgJpaJeyjIw4HQIQYwT1nANPZVta2oI7ML8YjiEgcqh59sGm351zZencM46nz59isFigWBQNig3GZCVmJWWnJYQlxgdFRsWEx8RGRPG5pb/9O7Jza9OnDm+9cSRTUf2r909sWTb+qHRHm27TWCXUnX0/AYhdlBLHKsij+jJ17d2vD2/+qv1tZst5C0m/D4DbaeMslVctEZWNKYid2vLOm3CxSta959Y1bJITa+EVFgxylZqsTKPIAbwLCh6VQ5ekZDPj8ig+oPLo3NLo2GMNLK8IBEZEwuNCcoMCgP4ofjpUFZcAjqgUJAraxRQZIXt4zW9A4scxqZGk9WsldU7TIPL2+r6TAWlWCiZCCsrRfAYWDm7st7A1Ijyigl4IYcgY9GrKzZeXDXxxaK+HY7KLoFpRL/nm+2rzy4miaDNo7p1xxfVLTbuu7j7l9n59uEup/PBgwfxCfH+QYE+QQGeQX4LAwN9gsN8gkO9g0P9QyP8wyIBUPj0yycPHlw7d27/uXMHzpzZd/78gUsXDy0erbNWCYpg6eCEYD4+V03Ls3HhYwbK5ib+63Mrf7y46v72tsd7OqcP97w8PPB036IHB5bfPLrt26sntk4sV9fTC1lJ5XoYoxrGtMFFrRhZT6GwK0c5DBJ0xTNbouj10bTaOE5TboEkNp0ckFYUHAnyToJGhKb5RueG4fiQVHQwvDwJwwfAy7ITEGEJ4Gi1obq1rr+vtcOsq1QrJG1dtsYuC79SUFLBIwsFRQJusZxfaRByxOWlbDpHViEzKRU2GcdCUw7xbSsNy4+Pbr6wcsOZsUNfr20clY9ssXeurapbrFm8rfc31x/niWvnrPO7774LDQvzDwr0DQ70Dg30i4gKT8pJyIZlQNAQNKWQwqTxFTfu3Zp8fv/ClVPnLp24cOXkxc9OX/7izOr1w1qdCA7NiQoJigryyojzQ6WH1LIhp5bXvLq4YfrMquenVzw5tvjx+dVPrk7cPrXt8bVTX187tmHPCEUOR4rDCxWx+aLoIk16sQVIsWRSaxNp7aHsvgjTJiCvP7KkIYRsDy/SxyPEcX7ZC3KpCXHAQN9Iz6iUoARwYlROaBI8lCqGw0tTyCIEigGIA0XRuWKTvrXWVFulVfNYHJVc5KgxDo4NSKu0DLmUq1HTRAKRSlxVY7U1t3cOL+tfvrp9fLSyzdqwZaRzx/IN5/efuXvp6Ff7jn6x9fCVzdtOrFh7eHH9uH317uV/np0v3+Nyuh48eBAaGhocFhoRFxOfkYoikUr5MqZUI9KaK021GlujuanzzOXzz189ufbNlatfXvj8+qVrN6589tXF3Ue2yDViFLogKjrWz883NTVeKy67uHVo8tL2xxe3T17e+cONo7+7f/7lvZtP7z787PTlI/v37Dq2tGktS9ifxulMKdSHIpXRJTawuJtQYs8uqUul96TQuxOItaFke1QWe2E01sM7Y4FXygKv+AXh6cF+0b7hCRH+EUGBSSHe8QtBlNQiATiHEAOjZcRAQ+LhKZ2DK2ymAY3CpFao2EyBkMkzaDWmWqvcZqjp71LabEhyMcdgWbTt4PC200v2fLZo18VFu8/37DjRu/vs0O6LKw9/vnLP6fFNEzuPHTx89tSmffvaxsdq+gZvP53+zemaxx/dLtfjx4+L8EWUkmK+WFRVY+0dGx5duXT1lg1b9+3ad/zwwVPHD50+fvTk/vMXDl397MTVz05cunz03PlDm7cub+m2m2r0ArFQIJa3d/eeuXD2y8/OPP/2/Mv7n/3+xd3fvXr4u9dPXj+7/+S7qamH/3Dv5su9ew+cuLaubgPSsi1OsyqH0ZZCrwNRq/NA7GhkRRStBlDaAqDWZ5DMaRBebDBgoXe8p29UgGeQj39k0MJgr4D44LC0qKCk4IVxCwMyfVACIJybnkKIyCAlJqDikxGZJy/fvXL52ZaNB62WWrFIU0ZkcZiCSqvRNNhqHuqQWi05KBywhMmv7WaY+ym6Pryqm2zoJag7KcpebvVStm5EUDVElzloYj1HWl3K0WLpSgRV0tK/+pf3811fu5yuP/zhD+cvnD909MjR0ycPnT6x7/j+vYe2bN+zbsO2ZUtXDvQONTd3WFtbjGtW9KxY3N7bYamvqVTJ6FIR1WCsWLlm5M6928++f/XDjz+9fPv6n/7w8x9++v7dq6dvf/j+9ZuXb37+6cXbt6/fvvzxzbsrZ786eezUxOFFLeuxqiXB9FY/ZnMSqw6ax4yjaeEkWXqZOYdck5lM9w1DeQVleSwI9vAK8goKDPT28pEW0cUAACAASURBVAqJCFgY4ukT6wUsTkmjxERgA8AVqRBxahYnNrE4Ko2WllaSlVQAtDSNbtx4/uK5W1cuf71o0Sqzrqm9c7hmUW/d2kU1Kwcbl4wOrd3A1iqKuLxiaRWWq8+liEElUpGjz9q3bmD9yRV7vli1/4vVhy46RpbRhCo0lQfBc3PQZWpr0/v/xD7c9e7t6/bWWoO2QiKg0otRJCwQjUhAwWKhueEISDQ4JwQOjsDmRpUVJBPzwtDAACIssqQgRVResGf3xunvH089e/LTzz///h//8cHDB7//x3/44YeXP7x5/e6nH3949+7V2x9fvvvx3evvJ+89unrhqwtXT3etVAiao2GVC9C6hXBJAIwXz7IQFa2lshZE1SjCuhZJsIalMX0ySkPDcwMDY4ICQny8/Dy8gxYGxC8EkMIxwjScLBcpAuZx0hKJobH4IG/ggmxmWiopOQ6clAmCoJAkbrm4rblvYuLIl19Pvf7dbzeev9n3xfXR7Xu7VmwaXbdj5YZ1O/bs3bXnoNVW39baNTw8duH02TOHjgz2DdbUN9OFUiKPhyovy6OS+MY6hroZiOdqHfW/uebbh7tcs5NP7hGwOai8UDQoiAiNKEbElhTE09CJDHwqoyiVS8oU0XI1dKiBAdUxgApaWp0S36grO7t39Y9vf3jy5MmzZ1M//PD6xx/fTU5Ovnjx4s2bN1NTU0+ePHnz5s3r16/fvHnz8+u3337x7ekzp/eeXWZdgjKtzWZ2h9FqA4t0oVBBNMNeiNekqoYhtRshNRtzyttDS1tSoggLfTIX+icEhCYE+EV5ewZ6hqX55DMShA4sSQ4v0WKhzMwETJg/wMs/1zOLFh8G8oNgslavHR3p67RpDTKeVKOs7h9efeL8jePnvtGaWjTVzQpdXVPH6Ia1m+/duPPkzv0vz569dvrE12ePXzuw84vtG7cP97bZ9OiCvFwYAEXGQGhEYW1nub4fTJVVNbXMuGfnOT86nb+8eHFfJsGXU1MFZRlVYpRFhjGLCqorEHYZ1i7FNKiIjRpyp57WXVXaVU1tryZ32cqX91ZdPrLlwP69W7du3bt377Fjx27fvv327dvbt++8fv365cuX9+/f/+677969e/fzzz//9Pbd1LPHn906tOSAzLwuses03LITJBoMEXTGMurTOI2gvAp/SV+qdkmSfCyK0R6GNoZlMIJ8czx8YheGpwUtDFvgGx0QlhWQgg2UN5PKDJhMWiysIiuRGOab7ZVNT8gpT/SK9ygiAK9/dvzuZ+c/P3L4ypHjB7ft3Lpmw+nDxx/cvHP96rXPL1y+dunqgxu3nt+/9+Le3ZsXzl4/ffTOxVPHt6y9vGP9Z1tWfbZz/Wf7t25fN0Yh5xcQYCgmRdk2RNf1gSjS/xTHWecf3737rrVZYtLhaqvwXQ56Xw1jwEbvt5aN1LKGHazu6uJWLWHIzhy0Mwfryvtq6T21nOE2zdrR9tGRkbGxJeNjS5YtW7lzx+6pqempqWd37tx5+vTpkydP7t+///Tp07dv3/7888+vf3p64vqKps1Q/vAC2Xpf7pIwZpc/yeaLq4pIK/eNJXuRbbHsjpjyNj+8xQ8qDc5hhPple8QiAqGUDN8ob//Y4EhgMIwVi5GkwbiZidQwMC8tDOkXBvdNLAoPAvgGJixQyejXzuy/fnz/zeOH7p4/++35s0+++uzFres/Prz7u8nvfnx45+fH91/d+eblrevfnDp8bPPqXctH1g90bB8fXNfVsLG95tz6xdf3b316/ezapR1IdAaSQdR2jZZpe3PJElNr+/z+OOv8Pz/++Ki9Vd5YQ28wkZtNxR2m0lYdqV1PHmvgjdRzW3UkmwjZYyltNRJbqvGtFkqHndVqEw+22ft6+gcHRgYHRoYXjY+OLL32xdfTz188evTo1q1b9+7du3v37tTU1PT09I8/vnv59un2k4Pd2wma1cGsUc+yAX/eUDTW5AtThmSwg8OKPEGiGLw1jlDrj9aFRqEXxGP8PRM9QiGesZAgz8iFHiELPSI8UgiBQdAF3tkLfDI9k0nhCdiwKFigV7yHb7xnQkYIm4Y7vXvzue2bT25Ye2n39lsXzjy6dmnyy0vbxgeHG2wT44Pf3/ji4dVz3546dHDN0vVDXesGu5Z1ta7o7RhrqW3TSketun2jvecmVl08sZXBQ5ep+JrOEWplR1ZRha2ja8Y1X1y7XO+nn9/nswvp5DQmMZlFSBGXApVMiJoNk9AA9VpqW3V5vZbaX8fob6D1NtI6HbRaY2mzRdJWY2xt6uzrHR7oHx3oH+3rHdm8acfkk+fT09MPHz789ttvb9++fffu3cknT374/uXP7358Mn37yFcj9jUgwWAgb1Gofn0aozsCpPDMEQYklPkGYz0TmT4QjX8qzSsI4LEg2sMn3TOJFBqQ6RWQEuKfGr4gYcHCdI+0knAoPzuNGJNcGJEMjwqK8woK946Lj8jKSCZgC07v33tl/4Frh4/cOHP6sxNHv75wViPgSRn0OoO2p86xednirhrrYJ21v87abbe0222NJpNBoVQIhWoBx8BmdKoUY43W9Sv7B5c2a9vt9tE1NG0vvEylsjvez3t97XI6372Zbm3Q2vRl1XJCu4XXUs1uNrPrDHRTJbmCDqkzMBqrWY1Gsk2Vb1XDHfoivRznMAisWnmtrbG7a1Ff79hA/+K+3rGx0ZU3vrn96tWr58+fP3r06N69e99+++3169dfP/v+3fOfXj1/c+WrQ/WLycqRRO2aJPOuBOXaGGpbQKbYI5mzMJa2IJjokSbwg4sTwkG+4Vn+QTm+YcgAr7QFgRnBcfmpEfDQ1OLgAkVGaL5fKMA3KGVheEJASKhffGRUZkJqdmoWphB94fjJL0+evXLo6Ll9B07s3Xvy4OFyKq3WbDeq9S2OhpWLl8n5FXohv91m7qh1VKu0CrFCLlEqKzW26mqHSmNkc6oruB0tlqGVPZVN5sM3HlQ2r0YwtBpHw3vnfP7ods3++OZxi41rlOQLSpLUFflSJlDByWYWp/NZCBIBSKdAObR8QRlERAcKaJlyLriSh1Ty8VVSpk2va21q7ehe1DW4tKt/fGR0+YULl1++fPn69etnz549evTom2++uX///vkvry5fvvTU2vWPjmw5ta+6aV16xTqv8hHvkj5fuHlBusQzib8gXeidr/LHGwMhau98aRAIF+of5bEw3iMC5hWW743VweOoYaE4n2iSVwRmYSI1MCzHKyzMPzkiKT0mPTkxNS0tCVcA/fqzi+eOHj6+Z8/B7Tt3b966fskKBU/Y19wx0tm3bvHyZYOjBrnKqjG21jR21Lc6qmxGZZVNb21vaOtt7+pv7WgwVmsEggajfvlwn72pbur3fxjbeQYjMCkdPb8658uHu52uF0/vyFj5FdRkRlEMk5zGL8kS0zOFzDyZhFhSCuNz0BoZqVZHazXRGwzkVlNxa3WZTVGs5RAlTJqturqjZ7C9f6xnaOnI2NLTp8+9fPny047n2bO5NefGjRs3vr25fsnyi2s2XVm6aP+ocsum4vbFCQ2WGK00nF7uRxWEgujecGkA1RRPNoShqv1wVWE0aQ4AGQagRuA1iRBRMLE2DawJT5P4QdQhyYyFcVTPeIRHQrJXanRYakxkXFJYYkp4ESrv0umjR/fu2rp2zfplK3pb2sd7B81K7fLBkVXD45uXr+5vbrdpq+x6a121o9nWaFIZ9TJtlULfXt/a2dw62jewqLOrxWpxaFSjHS29/T2TP/584It7aH6VtmHgt3m/n3HNuH94NmmSlxoEqGox2qoqtSpLa1TUehPXbqlgsQrkkqIqNaGpqrjLVNKiwzVp0J1GaruhrJqPZ5OwAhazsam9pXOod2B8xco117649ubNm3fv3r19+/bFixePHz++ffv2g29uH9m0+9bxCydWrBgz8Lok4PqysOXkrJV0ZB8DNW5l2qsw2NJARIk/lOGfWOaZWuoFI4amgvzy6OFIkT9a5QfX+oF1fmCDD0TrXVgVxKiJ5Vdn5YB84iM8E6L9YuL94xOCsQjI3m2bt65ds2nl6iUDIwNtPd0NLa222h1rNy7pG1oxNNrhaGgy19j1VpPKaNdbdVKNhC3Sy7Q1VTZrlam/vbO1xmFTqx0adU+dff/+PdM//W7PhW+wFVXG1kXz+6PzV9eb6ec6IbWCnMPGZ5Tjs0n5Sfi8KAQwCofOoJVB6DSARlHgUGHbdfg2HaZNh27V4pqURCMHzaNginEYm7Wmpb1vYHB0146djx48ePexvH379tWrV1NTUw8fPnxw+8G2jROXLlz57sbNh2ePP96x9sZg092u9ls9PeebGw8323a36VfUsmzS/DJmCkOTimOFAbI9QQC/TIR3MtQzG+NFN6RilPFQSUQM3iMR75OB9opM9QgL94gN94sOC4mNik6Ii8EXIHZt2rhp5eqNK9aO9ixav3StUa5Z2r9o/5btq4bHx7r7lw+OtNrqrFqzWqSsUug1YpWMK7HpLDa9RSGS2qtM9SZzlVSqEfAcmsrtm9a/fPPT7jPXSCKjvrHvL/PmKVwz7skHt5HZkaiMgMKcoCJoNB4aQytMpOGzyorzqFQwKj9GwALLGUAdO7dBXThYSxuqZTUoKXoWmk8qpBWhK2Xyru7+pUtXfP3559NPJ1+/fv3Dv5Tp6enHjx/fe/Tw+IVzuw7tvf7l5btnjt1at+pCc903yxZ9u3LJ14vHnm7Z8N3asS+H684P2vaMW0f72C02gomFHDILuLREelEUDROblekbm+qTAYsIiff0D/cIDvMMDfWJDAuKCA6LCY+Pi04FZACLkMhNK1f1tXbZ9Nbuxu7xvsUOvWVx7+DasaWjXX2rhscPbttp1xnN6mqLxmTXW1XCSpWwssZgqzHadJVqk0ZfpajUS8RGicihqVw7NvLu7U/X7j2jiqqUNa2/uObL97hmZ9++fNRQzWjUE+t1+Bo91SBFNxpJFh2l2sDksDE4dLq8AmdRFqu5+cLSDAU7t1ZDsVeWajiECgqaWgBn0emNDS1rV6999vDh95OPp6env/9YXr9+/fz584cPH95/9OD23W92b15978zhy0uHz7bUHTfrjteozzWaL7XVP1w5fmdx7xf99i97ay73246NqA/2q480WjbrlY7yfCEgkhLpCwvxTA/yjPP3jPbxjPLyCvcLCQ+YewgsPCQ4Iiw0MzU1MzmljEhZOjQ62N4/1DHU1zKwpH/ZcEd/f3N7b2PrSGdvT0PLvs0Tdp1RWaH4hFIlrJRyxMoKRaVQrpErLTqDTadXVwhMcmmdTtXfWDf95Ombf/wzV+uQmuv/Mi9Ht3P27atHXbWCRj2uQY+pM5LUAnCttlApQdHKoFwBAY/NlguK6vTlzdXlNWq8igfhUjKlDJSCiRdSMCWF+VUqdUNd09ZN26YfP3757OnTqadPp6amnk09n55+Mjl57/6923dufnfzqzNb19/YuuFYc9213s4rTY5rTVWXalSHdMIDBvF+i2y/Q7HfIjlQzdthZ0xYuTv1itUigakwpzI7SpAQykwJJydHYZOi4VHh2UGBkb6BQd7eocG+YeE+cfHB8fHBaSkxNBJ52fDiZUNLF3UOd9Z1tdnbl/SOdDqaGo22/qb2ZrNjWd/worYejbiyWmUwa01SnkTAFIg4YnmFvEqtc5gsHXUNHQ5Hq8Xcaq7qtNvPHDn5uz++N7UNiA3W+f3R/d79ZvqpQ02rEuSaxLkmGdQsgdSrkQoRMgsUCYAnwlGJMiGq00TrqqJ0GondZqpZXFDJQIpLCvgEDJNIaLDX1zpatk/sefp48tX33z9+Ovnk6eSz6efPpqenpp8/ePjdvbvf3vnmy4dfffX48mdfTuw53Dc64Wi6tLjzi2VtZzsNR+ukO42CdUruIj65iQZqZ+f3CIu6hPhmLq6aClEUZFRAk8oBMVRADBWUhM2JAyUEp8SFRoX7h398giwqPjwyLjw2MRIKAS5fvHy4d7yvaaijpqNGY7YpjZ32lt76jpH2AZNM11vXPtzWZ6xUa6RylaySQWPyOEJjVU1TQ0dfZ99gd/9gR9dge/tAc/NIe+tAU/uaxatf/vBjx6KRpu6+X2fmi+sPvzl/mLxbX0lskkOa5bktKniXFtGhglRJEbiijAxwbA4klstB1qnJzaqiVi2uRVfUoCZp2GgBBcXAo5hUcntbZ0Nz5/6Dx548mnw1Pf188unTR4+fPZl89rEy+fDRk29v71q1uoJIKYMgBqusj46f/3zjxLY684Hm6qMN6uN1stMtmqNNuh0O+aiC3MZGWshAHS5TDE+kpgQjI3ygYV6gMO+sMK/EIM+4QM+4UO+oUN/wj48qxsSFRieEh0UHRcWFgsHZY8Njw73jYz3LxrpG++o7bBpTq72pw9HaXd9eo7PqxKqG6hqzWqcSy0S8Cg6Tx2TwTNW1FnOdpdquVxlsBlOD2dpstfY3NXbVNvc0d/3ww48//+GP//yXX2bmXWc+vP/lp+k7PXpSsyijQ5LeLsnuFKd3S1JrJBASLjUPkZqUEUKhgmxyYrMS36YjdBipLfpSLQfHJSLLCAVcBq2tvautq//kqfNPH06+mpz64fGzVw8nJ7+9+/DrW5+fOn/h0PGbJ87tWrREiqcio5NY0MIenfmzib0XRsfP9nZuUvI2KUq3qWlb9cwJm3BVFWuVkTOkKO2sINnpBWJEGj4tFhwdkuC3MNzLI8zPMyzQJyzYLzTAJyosKC0lPiU1NjU7IQuUkl8AKikmjg+PjfQuHu5c3FXb1WZttOssZnV1T1NXu6PFrK4uxVFb7I0f/VFRKZYx6eyS4vJKhb6yskoiUvLYQrlIYVBq602WthpHk6XGYbS9nH75u9//0+UrV1esXD1P3uzDzJ9/nr7ZpcF1iNI7BYlt/OROXlI7O6pBmkcqiMtHpCQnBxBxmTYZsamS0FVV3KQm2qQENbNISMUKykgauaSxobm9tffciQs3Ln1x8+ylWycv3Tp16esjZ++eufr5vuOLbE2fbzt4feLIzb2narmV3WrrzkUr7p+8/NXKdXdXrTxoVm+Tl4/TUeNszBIReVBMamMW2qkwCwWuJ+SJ4OnFuenYrFRAbERMgG+wr1egn09ggG9cZCQoJxuaByBRsGQatoSJr5AyzSb9+Mh4b+tgb9Ngu7290ehotNRrZZpGe2NXU2c5tVzIFnY0tFm0epVEphDJuCw+kVAsFikViioajVdG44oEMoPaYNEZWx31NVXVRqV6+snkH376h/aW5vx82Dwc3c5ff3pxq0NPaKlIa+PGd/DS+kRZfeK0ViWKQ80uJgKhOaHFBfEaOqSanW8RIE0CpIqRL6dhxCUEAQUvZTJ0MrVSoBxp7ruy88hnEwfuHT7/1Y4j3+w69vjkla93HRvU2Eb09Td3np488eWaun47U3FobOPU6WvXl6/abzNvlnJWs4jdGFBNXpoZntFEQ5jxuUJgHD01FB/tjwr1zgvzA0QEZIT7xwX5RAR4B/t7JcfHQHOhSCgcAgbU1FYvWzO0ftuSLTtXbdy4emRoZFH36FDbaFdtZ6PRUWtyGLXVPCafQWMWFeIV4srWhpZ6k0WvUKmklTyOgEKmVQgUao1VXmniCyoVCn2lTCMXyY0aQ73N2mS1TN669U+vXv35n37vnP1P5MPfvrjToCG0ykCd4qw2bmYTI8VWGl0rhCm5SDohmwSLqMDHSQlp1Wxkm7ZYz4aJKXkCAoKDK+DjCkVkqkGgMHBVDWLj9Ykjl1dNPNh/9trGfff3nXmw/+zU8avra7sa+dptXUufnPzy5JJtbXzDqKbh1vbjJzra1kl5yxmkYQJySTFhkEhoLkJZikBWQp6dirCQkSZKgRieQ0qNgUYFpPoviPfziPRdkBQZCANkQoFQaC4UAYc0NtuvfHny6tcnrlw7cerUkb7uvkXdowOtwwPNA/2NXQ22+sb6FpmkkkSglhbTjQZzY21jk63GojNU66qMepOwQiasUCg1FrXeoVCa+XwFjyvWqQzV+uqmWkdfS9PZvfte37v/T+/ezs7Od1+Ke9b9evqBUVxQxUo2lkaZqLFGcryaEKUsTWbj4wTFqVoWQEVNZKPCRZQ0mwQjK8nlFgFYGDCjEFoCARZD8pRlbCNHXieqOjS+7fNNh29tP3Fn1+nP1+59fOjy0yNXT4xsaBfo6zmqS+v2Pjh8eam5vZmv29e/8unBkw937NlbW9NfRl4lYS8X0ofYpLaygnoKwkaEG3BQNQamwsDLYRmI1PCMMO8Y7wUpISHoXHB+Vi40CwoDwnAFaGWl+NKVY1euHbt45dCRgxONDmtnY0tPU1dnfWdnbUdPc7e1ylatM4krpLSScq2mqq2lo8FiqjebrIYqh6Wmxlxr0Fr0aotcqFLJdAqJSsAXG6rMVdXWutrarubm8a6ez4+dnL7/wD1/vuc318un9ytKAWxMoKEsvpEHrudCbFyQSQBWc7JFJYl2CdxQnklDBGNBvlRkJAOXzsACaKgcKiybCM7GZKWxsTgdW2QT6Zc0jV2dOHVl7b6HBy9/uenwrZ2nJ49+fn3L0T6JqZ2n6ZOb7x08f3zZlg65adBQd37Frrt7ztzZdWit1dJUTungkJrKMCYMmJsRIwSlsbJTcDER0CC/zFCfxOCFsX6eaWFhiHQgJgcJT5m7cxyZi8Tmo4rxOJWMa9KJecwiFg3d1WxrrrE022vrzXV11fVNloZ6c62YK1ZXakVCGZVCa21pb6mx1FTprTqdUaVTiiqlfLlWqtNJ1VqpRi1T26y1NfZ6i7WmoaFpuH+wzV53ZNuuydv33TPz3bfnnnFNTz6gFWXiQD6lMH9ZUbKGAuBjEhnoODIynEFIsstxMnImHhRUAAzEgiNo6MzSQgAJloUFpqMyUxBpKehsgIharucqGjV1l3acPL92z409Z77dd+7yxoO3D1y4e+jS9rbxdq6uia2e6Fh8Y8+ZdS2LhoxN6+v6z6+YuL33xOmVG01lTD4CyYVBGKAcfFI8Oj6WmJ2dFxGZHRKWER6WHRsNiE9AZIKQmXBEOgKZVZCTCswHwrEwRDEKBU2OgyVEY4BpjBJMX3t9e4Oj2V7TYKl1VNU4DLYGc53D5GDQWGKhjFbKYLE41VpVpbDCqFKb1PpqlUHCEQs5IqmkUsAT6bXG/s6BrqbO5pomh81hqTLadcaxjt5HN++43s+bf3S6Hj24VQBLheeE5Kf7Y7MiKKBEKiyJjExBQaLzQZElmMxieDIuLx4BjIZnR5MLgCQUCA3Ogmel5iYl5KWmgJJSSwrxUkaFWV51cuLQpV3Hz2w7+PXRi5d3Hz+xae+tU59f2Xp0vLqtnqttqDCc3rD//NbDy5uH+rSOlXW9pzfs+erIpRU9S9gEFgmGK0agyzHEkoKigcZ2LoVeAIAS4IUFudD8LAgkHQxLh+elwuBZyJwMQEZiCjAhKTMkLM3bFxISSgHlkNDwoe62Rd0dHznW1FbbLOpqk7raWmVTKTQ4DIHF5GEwRYS52+jwHHq5mMOXc4VsCq2UVFKAI2CLSHyusMZYY9dZmkx1VqPZajQ59NUOTdWda1/P74+/vX//pz//84P7N548vPnkwY0n9799cu/m43tfP3rw9Xffzdnj776ZenBz6tG3T+fs1tTjO1OP704+uvvku7uP799/fP+7x/cfTj2afDE1/erZi9+/+92ffvfH//MP//x/fv/HP/3DP29curbV2tiotttFRiNPI6LwVWxFq7lFL9JyimhMXCmPwupr6u9rHdEr7exyaQVHZjY4lGINj86XsMVStlhVIdfL1LVGe43eblaZdRKdSqTSqVQSHk9dUdFltfdUW0asjn57jaPaMNbf29fW0tvS3NPc3Nfa3lk/t23UKXRVWmMxtQyDxpeU0OFwJBZdRMAUmTX60a4eg0hCI5LzUWgoFFGAxMgEMkeVvcVSbzfbjFq9QaY0SipvXr32Yd59+IzbOeN2/vr+vdP5UadoTm3I5Z6dE+mZdc8JOrldrg+zzo/Vj387d2TG7Xrvdr7/4HL/1Zwut3PWOTszp/Iz43K+d7lm3M73zsWjy5RyjZgr55WJKLgyUDYiJQmIRJFQBSQovBCNIZXS2G3tfWKRikotz88vAoEwYDBaIlRpFXq1WKmTKtViuV6haq6p7W3raLI76iw2o1rtMFfrK+VGVeXyRUObli5bMzS8YmBouLt7oL19sKN9rL936aLBkd7uwbbu1ppmq8EqEynKShkYNJ5AKsYRi/F4CofBPrhj19VjJ05u37F8YKhSoiThyAX5aASsgF7KlIsVKpXaXGWsNZhsSt0XZy64Z+e7LvzVNfOra/aXGed7p8vp+jAn7+D84J51f3oY9DeX2+n64P6ojPVR+mhOsuijrtTsnMKL66MExEf5p08qVHP0Xe5Z14cZp/v9jHNs8XKdwSQQKElkNgSOzwAgcFRmTHpuVBowMh0AwRBJdKZEoaIzmCBwXnZOXmomLAeAoJLoDpPDpNKZKtVWnV4lk5j02oYaa6PDUmutqtZVmrUqs05TZzUt6uvZsmH9iiVLxwaH+ts62usaOhvqF3V1jg/0jvZ1D3X0djW024w2PqeiCEci4Cn5SAwwD4ksKComlaxbuvzU7t2X9u+7sP/g/s271oytcJhq6KUMeD6qQiQTS2RKqUInkesqJMf37Hf+Nt99pH9TdZpTs/oXPbcPnyp/lXf62/GPDzf/KzWsvyo3/VU642MHn9798GEOt9O9aNFiqVRTwZUXE+gIaGFtTePmzRNSRWViWnpMWh4CQ0UisaVUGhJekJyclZiam5gJTcuG5ubm11jqLDpTXZXFrjdWKdVVlapqtcZhNNWZLbXVZqNSZdbqTGptk92xdd2GVYuXDnf39DU3d9fX9zU3L+roGO3uGmpr62tqaa6pVciVBGpxXj4KBi+EgFGgPERBAY6II7Y5SMs7gwAAFVhJREFU6i8eOnxww8aL+/ZdPXzo6NZtR7fvGO7oJqOL5BVSdaVBJdVUyStVPN7xvbvdzvnW6/+yfsh/0PCvondu9weX88PwosUSsYbHleGxVBAA0tbYtm/H7r72rvSklKxsaHtLz/jQGBVPyUwHJqdD4zNgSdmw1CxIZiZYwBE12urrjDaHwVxnspo1+mqV1mE0N1praqpM1SqtTW80qXWN1pqJdRtXjy8d7urpbWzsaWgY6+7+v8Wd51Nbd9bH/4Rnnle7s7txEpfY2HQkEOq9F4RACBBIFDXUe0GiCEQvAtONbRwb19hxTFwTcDcdAaIJJNFMcUniOG5gIM+S7O6TfeHxjF/EM3fuizNz3nzu99xzzj2/3+9W2e1lOTnF2dn5eqNeroxhMgNCw3YfCN4XEBp0ABgSFhUZCUZAEBJe+vmjbQ1FxeeaGu9evHCpre1sy6GO9tOnDh0tNOfwk4X8xIx0TlJqDP3S6fat967HfQeODzb/i+O2ojd/LSmuiGEkYgjMUCAkYH9Ins3eVH2woaSSS4vJNVgO1Rw8feSwiJe+Y8fev+2K+GQ/5PMDgJ37wvbsCYJFI00qg1og00kUOqlCJcpSCMQaicwgV2mz5Ba1zqhQGxVqi1p3pL7pYFllZYHDqlIVWSzOwsLK/PymiooTTU2tNbVVjhJ2QsLOgP1fBIYEBQNBkUgwFA2FInEonCxdcL6traW0rLW05GxD3an6+pay8lPNrada2+rLnGkpIn5iRiqLncaKvXHx/Nb6+/rCDwb2Dsf/6HFr7c2GzWqHwwiB4eDPAoIDAkMryqpONB853dh6pr7Fac8/XFXRXFZyrKkZjiD844uoz4Lg+8Ih+4Kj9u4LBYaBDAqdjC8yydUGucqoUJuUGpNSY5CrzCqtWaXVy5TyTJGAy2uqrm2sqnFYrIUmU3lubmN5eX1paY3DUWqzZau2fZOSkwPDI/aHASKAEBSCiEIT0Wg8CUdKoMUccTrbqp0napyNBfnHnc7WisrawuLa4vKG8hpxhpyXmMGhMRR83o2L5399bz/zDhwfbP5/jm9er5tNuSQCE4Ykg6CYBE5qw8GmpqrapvLqQ5XO9uZDHe0nvjrc0lxZUVZUHgJA7Q6CBINQB0KjQ0KigGGgHL3VotCZ5Bqr1pBrMJuUGotal63R5xrMNp3RIFfxE5LSE7n1FdVH6pty9cZcrbbUZqsuKKjMzy+12epKSpyFDrvFlikQAMCQ0MhoMBSNRBChMAwSiSXhSBmJ3KM1NQUabXOxo6nQfrisrNRsOV7X9GVDS1luoThDkRyXGoMj2HWai6dObG28L898MLB3OP4XR8/UbE+3a2xk5v7t/q4bt7uud3Vc+Ka1sdmek2M12Q7V1rc3Nnx1+NDZtqM5lrygEPD+CGhYFDI0FAQMjzarjOW5DpNcY9MZ1WJpntGSazCX2x2leQU5epM2S56ZnCrmpTdUOo+3HK60F9oNhoq8vBqHo8hiydfr8/X66kJHdVGpWCKJ+I1jNAQNg+DQGBKRSI2LiUtP5NYVFRVotWVGw8Fc28G8vLpCR1NZ5ZHahly9JY0riqWymQRSY2lJ1+VLfzrH38+9/P0syI3Na9dunjz5zY2rd/sfjNTXNFtMNp1WX1pSSqfT4+OSUhK5iXS6kMPWCDJz9SaJQAoAIcOBMAAAGgmASDOzaorKLSptvsmcZ7IoxVkaqUIrUwn4GQJeZmJcIp0cQyfRxWmCM21fNpSX2w0Gh9lcYDTmaDRGqTRbqbQbjHlGk0QkwhPJUWA4BIJCI0kYDBGLIVLwFC4rvr2pyZmXb5VmOfS66ty8prLyg0Wl1YUleqmSl5hOwVJTmHFlVuu3585svX1fX/gOWX2oeevX30rQ7ZM0N7Y2T5/t4KfruGlKqdKcnCrUGrKFgiwinoiCIzAoNB6LiwwNR0SBmXgyNyZOI5RIMwVAACgCAAsNByfEJdWWlWWrVTa91qzT8LkpKAQGDIIhEFgcjh4ZjQ0MgweFQoHh0ZX2goaykvLc3BqHI1+vtygU2Uplnk5XZDYVmEwWlYrNYCLACDgEhUURCVgKhUiLZ8TxOUk5Wq1NpczVarVZcvP2A8u26YxWrUEhELOoDAoSq+BlWrKULc6Db9f/5Lj+N8etrbW19bWOy105ebVMtgBJjGWyeWmZMplCE8NgYTF4GoVqs2Rb9IZ8s7U8r7C6oPhobX3rwTo0EgeKRgMi4QgoqqLQoZdKVGKhWaeRiiVkEu3A/pDPd+6lUVm79oTs2BW6Y2fIZzu+iCWSWyorT7a0NFdW/odjrlbrMBrydFqTQs6JiUWCETAwEo3A4zEkApZEI1AzuakV9nyNQJCtUqUnchUCsTxTpJcpjQp1EjOOiMIkMVh2rUnITs7RGjc+lh63trb7o8NtZ9RaB4nJh+AYOCqbzkrh8oQkMgODJsTGMGurnQ01tSePHKsqKK4pLGl11p5vP0nAkaNAqGgIBgSE5BgM+Ua9NCPNoteKBYJEDhcBx+zeHWAz54SGgP7+aeDfduzf+fn+fZ/vESQlnz92rKGszKJQGKXS3+M6R62yKBRmpTI1IRGHxKHgGCyKSCbSiTgKBUeWZQqP1teV2Ww1RUWVhcUtNXX1FdUFFhuPnUhCYihYfGmOvcJmLzJkn2g+vPH2T67D/6DHtxsbDU3H2BxpNCo2CISPxjCwFDYjLgVLYMAQ2LjYuMuXOm5/33X9m28vnT539dzX967e6Ll1W6XQIlCkqGgUBASz6fVFVotWKtEopBKhMJYZj0ETgoMjvuu4Ul5S9ennQZ/uDtu5J2TP5/sig8Pa6uoay8vNcrlRKjXL5dtluUZtUShMCkUKm4NFYJG/cSQRaDg0kYghGOSqr9tPnG49dO5oW115lUmpqS4qTU/k4qAIdDS0KM/ecfqr62e/Ptty9N6Nzs33fqf40BfhO/z+wHFtfd1RUovBceCkJAAqBoCkh0MJMBwDTYwBgOBp/PThwSFXX/+ka9R1v2dmyO0ZcE2Puu15DigMD4xChIcAdDJZsS1bxEuJZ9IZVCoWs/3NJiQ4YvDuveW5JRyeuSsgctc+wN69IcF7AwtNpiO1tb8nGZNMlqPR5KhUWpFIKRAks+K39YjAYlFELJqIRxPxSFxtWcXSzPSyx7Pq9R6pb6KgcRQ0jkmklOYVDN7r9k96ZsemFsc87rs93tGJzffuY38Hjw81/4Hj2423NXWH0zMNSQIjR2hAM1KhxPhoNJXO5oGgWJFA5JuemR6f9I1Pelxu/8j2mHt8cKi5sRUMwUZEwiMjQHq5vKrQrhBmspkMHBoDCI/cszuAFcte9c6szi3y+Fl7A8F7A6MPBIHCgsI1QuHp1laH2ZytVFoUilyt1qqQ68RiXVYWn5NExpHxWBIJTyPgKDg0gYQlHm85/HDaszAxMTc+vuDxeobdw919M6Pjy765xWmfb2JqdmxqYXRyfmRyxTe/+bHienNrbX1zo+nQCRYnC0dLZaXICDE8LDUJCCUlpGbhqQnxCSkjw273wMBYX99YX9/gvQfdN2/137kz0N1LIdEiIyHACJBUJC3LL9DJZAJ+WjwzFgFH7N8fePz4ibnJqeW5RWYM50BQVGAIJCgEEhgEoJGIB8sqah0lOSqtSabMVmsNUoVBqlRLZOkpaTG0WDKRRqMyGVQWEUemEiidl6+ueL3+kZHx3p6Bu/fG+gdm3O7ZyUn/xMSkyzU9PDzeN+Abcc8Mjz5eWHj/fOZDhfcOv+0yfPPXX9c3t9bWNjdajp5K4qthGBYCx0oT6VmJIjg2lsLkMeLT8VR2T++Qq6fb3Xt/emRouK/fPTQ0MTQwNepKjI8DR0PDwyL5fEFxnkMjkYnTM+NjWUgEIjw8vLOzc2V+ydXnQsIwgAgIEIQKByD3h0SGAwFambKhtDJfZcjVGPOMFqNcpxYp07npaSkZsUw2iUgjUxgxtDgSnhJHZ3VdudbT1Tl6//7UYP/Qg3vff3up49yZ7pud3Tc7e2/fdHd3ewYHve5R/+T46sP5zfeeB/AOHh9q/gPHNxsbRmshlpwMRcdGRBMQOBYQQgJCSAgcC09NjEaQLl68fPvG9Z7OG8MP7nVdu95//8Hg/bse94hBrYJB4BHhUSwWpyi3UCmUCHhpCXHxOCwWCoX29vUt+heOHzmOhuMgYHQUGBMBRB0IjQoJD9Mr1e1NrblKnUWu1smUSoFMnCqMo8WlpWSw45PIJDqRRKOSGEQcOTk+aaS3f9EzNTUwsDwz7Z8Ymxreforu/t6p4aH7nd/d7Ojo7ey8c/1q17XLPs/Ex+T4an1Nb7En8lRUVgYATIRjY0FwKgLHwpI5WHJCJBTf3n7WPdDf2/XdeH+vq7dvdGBgfKDPNzlWUVIMBkEjwqOoVKY9O1eyfbwxPzGeDYfBIRBI/8CAb8qbwkmBgOAAACQsAhoSBgsFQoNDQ8+fOvP1sZNWqVojyFJLpNI0cTqHzyQzRRmSJE4KmUTHEyh4DJmAJSUw2WMDQ3MT49ODg7Pu0Rn3iGfENe+Z9I6NekZcy37v7Oiof3R0bnJidmpied6/8d759YcK7x1+f9Dj67freYWVBltlfLIUgmJEwShRMAoUHYOnJoGRtKBwaFtbu29i3N1z3/Xg3nBf/7jLNTk04JscO3a4FRgRFR4WiUYTcozZAi6Py+Yw6Qw0Cg0Gg3v7eq98cxmHxEUDoeBoZDgQHhgMPhASRaXTZsYmr5698DtHaYZQlJKZlsBLYiUppWpOApdIoOIJFCKOgkXhObEJU8OjvtHR+bExv3vEPzHmG3c/9E4/9E7PTo57Rly+kRHv8PAPiwvzM1OPlxc3PmJcr21uWPNL45KlTI6Yzc2KglEioWQMKQGOjYVjmXAMrarq4JLfNz/h9rqHp8fG/VNTXvfIQ//MxOgIAoYEAqIRCGyO0SpKTWMzYylEEhaDAYPBHd921Dvr8Cg8CACJBiFCwyEHgqJ3B4QebKh/urw60HW3UGtWZYikGUIJT8iLT0mOTxZliJmMOCKBSiTSSHgaCo7J5GUs+WZXvN7pwcGZYdeSb2beMznvmVyYnlqYnlqZ9XmHhz2Dgze+uXjz2pVJ9/BHi+utX9dfv11rOXqKJzSmZOjEciuGnIAmJ3B4cgiKgcAykfiYAkfZ0+XlVf/Min9meXZuyT/7aH52ed4/7/MlJ3KBgGgMmmDVmwUp/ERWPJ1MxePwEAjky+PHiwtKooFgcBQMCISFAWDBYbC9gRG9/f0/rT5ZGPeUZ+fJ+ZmStExZujiLL5KkiwV8IZ0aQ8RTcDgSAUNGwTEamerHpZWH056lqalp1+Dkb9fE0MB2ohseWvZ7FycnRx88GO/vmxxxLcx6t967D+kd8fmh5j/E9ZuNdWf9YRor02goTuZKwlAkSCwHHZcMiMaRCexgMFZjLfDPP1zw+VZmPE99Uz/M+5fm5lYWF398/KS8uAQSFY3H4FRSZTo3jcNKjKEwY+ksLBJ34tjJ/ILKaAgBAiNGRKIiotAhEQgEkvjDyqPnj56O9w3ZTdlqkVQhEKtEWSqRVCWSKoRZsRQ6FUdkEKk0HJWKpf5zocBPy6uP5udW/N4l7/Sy37vs9y75ZuamJuY9kw+90ys+/7Jvdml27snK6s/Pnr39CP31v+uef05ezTaHTFNgz68j03kBUCIuLSsIQ4uAkOHwmHA0XZVbOjW36nKNDT7oHr5zZ7yvb3l+4fHyytPVR30PuqMiAGQ8QSVVCdNEGamZ/ORtmkQM6UjLMYXSEgnCgsD4aCgBBMZFgjAMWnx769GjDc115VUFFluBxVZky7ObrTl6k1mlNchVXBabw4hNjIljU+M5dLYsQ+LfbgG20/T06PCMe2R6dHi458FoX8+8Z3LSNdh/++74gMs7sb0admV5+WNyXNvcMGQXihW5NKYwMJIEIHHQKVkBSEYYgglBxQfCaWyhtu3clara1prK+obqemdppbOi8uih1lPHT5z88nhyAieDx1dmKQR8oThDkskTJLO521dCKhZHRyBJMAQRi2fgiTFINIUdl/jV8ZMdZ8+fP3GqvqLaWVzmLC6rLa2oLa2oLiqtLirVSRWyDKE2S5HFl+iyNGal/uyx456R4cUZz9OH8yuzvieL23ffuNs/MbYy65sZcbv7Bt2DrrGRUb/Pv/Fnzwv/K67fZueVUGMzgNCYXaFoKCM1CBP7BZi8B4APiMDti8LDyAk4ejKZnszliqUijVFjNmi0GoUySyiSiSU2s8Wo1W3/l4AnEPCFmTyBXKxI46YzKEw0khAFhMGgGBollkRkoFFEMp5SmJ1T5ShpqHQ2VdfWllY0VtV82dx68nDbkfqmtsaWpupak1Kjkcg1YpVWoraojdkafVtT48kjrceaG/LNxtL83I5zZ04eab1w8sTNq5cvn7tw/WLH5a+/+f76jdGRkY/J8dXbtUyx+tM9wH/sCt+xD/BZIOh/d+z/n7/v/cvO4IAwOBRNi4njpfKlwkyVTpVdYC2x6nN0KrVWqTJotGq5wmIwSkViDitBlC5WSJQZqZmidLEwTYRD4oFhUdsDwANhYCAUA8dCImHJ8UliXro8U5RrMNdXVNdXVLe3Hr329aXzJ05VFhYfazp06cxXdrM1PTGFSYhRZMrMKoOAm2pWK606dVFOdpOzqqXWeens6SsXvrp9/ep3Hd+4e/uHu/u+v3Lt7q3b0x7Px+S4trnB4vD/8knwXz/Z99e/79q5+8DegFAkmsxO5EsVeoVUJRcrbAZrQXaBVZNdYMwvMOdbTWZHvj3Pass2mlQyeZZQJJfItQqdSWu2Gm3VZU5neY2zvOZQQ0vTwca66rpDDS21lbWNtQ1nvjx5of10ud1RW1pRnJOvkcgyklLiqQwCHIWHIYkINANPsputzc46Z1FVTXF1XZmzrryy83JH983OgXt37nd+13Xl2747t25fv3r5/LmeW13unv6h+z13vu+6d/vOzPT05nv3z3xoYn6H37/ievsvc2sbb4dGxu90D/X2D7lcw+7R8XH3hGdqxjvj9/tn533+1cWlh/75h975Jf/igmd2wTv3cGFxdXnlx6c/PF5Zffro8ePVR8uLyysPV5+sPvnl2S9rL9fevHzz5uWbt6/X11+trb9aW3v55uXzF7/89Pzlz7+8+PHZsyc/rC4ujQ667t+8fffm7btdt+503brbdev+rTuDPX0rC0s/Pnr646Mf3zx//fr5y5fPnr/46YeXP//0+vlPb148f/Pi+cbrV6+f//zq52fPnjx+8/zF2otXb16+evH8l+c/P/+nHv8PhnJ2SVUB/3cAAAAASUVORK5CYII=;strokeColor=default;" vertex="1" parent="1">
          <mxGeometry x="-313.9999755859375" y="-170.00001220703126" width="109" height="93" as="geometry" />
        </mxCell>
        <mxCell id="w5DbKVON7oJ_gciqgCdb-4" value="Base shots" style="text;html=1;align=center;verticalAlign=middle;resizable=0;points=[];autosize=1;strokeColor=default;fillColor=none;labelBackgroundColor=default;" vertex="1" parent="1">
          <mxGeometry x="-300" y="-236" width="77" height="26" as="geometry" />
        </mxCell>
        <mxCell id="w5DbKVON7oJ_gciqgCdb-5" value="Novel shots" style="text;html=1;align=center;verticalAlign=middle;resizable=0;points=[];autosize=1;strokeColor=default;fillColor=none;labelBackgroundColor=default;" vertex="1" parent="1">
          <mxGeometry x="-312" y="-61" width="81" height="26" as="geometry" />
        </mxCell>
        <mxCell id="w5DbKVON7oJ_gciqgCdb-6" value="" style="rounded=0;whiteSpace=wrap;html=1;fillColor=#E6D0DE;labelBackgroundColor=default;strokeColor=default;" vertex="1" parent="1">
          <mxGeometry x="-128" y="-248" width="250" height="124" as="geometry" />
        </mxCell>
        <mxCell id="w5DbKVON7oJ_gciqgCdb-7" value="Backbone" style="shape=cube;whiteSpace=wrap;html=1;boundedLbl=1;backgroundOutline=1;darkOpacity=0.05;darkOpacity2=0.1;labelBackgroundColor=default;strokeColor=default;" vertex="1" parent="1">
          <mxGeometry x="-120" y="-210" width="108" height="63" as="geometry" />
        </mxCell>
        <mxCell id="w5DbKVON7oJ_gciqgCdb-8" value="RoI&lt;div&gt;Pooling&lt;/div&gt;" style="shape=cube;whiteSpace=wrap;html=1;boundedLbl=1;backgroundOutline=1;darkOpacity=0.05;darkOpacity2=0.1;labelBackgroundColor=default;strokeColor=default;" vertex="1" parent="1">
          <mxGeometry x="28" y="-204" width="77" height="57" as="geometry" />
        </mxCell>
        <mxCell id="w5DbKVON7oJ_gciqgCdb-9" value="FPN" style="shape=cube;whiteSpace=wrap;html=1;boundedLbl=1;backgroundOutline=1;darkOpacity=0.05;darkOpacity2=0.1;labelBackgroundColor=default;strokeColor=default;" vertex="1" parent="1">
          <mxGeometry x="-120" y="-313" width="69" height="48" as="geometry" />
        </mxCell>
        <mxCell id="w5DbKVON7oJ_gciqgCdb-10" value="RPN" style="shape=cube;whiteSpace=wrap;html=1;boundedLbl=1;backgroundOutline=1;darkOpacity=0.05;darkOpacity2=0.1;labelBackgroundColor=default;strokeColor=default;" vertex="1" parent="1">
          <mxGeometry x="20" y="-340" width="69" height="48" as="geometry" />
        </mxCell>
        <mxCell id="w5DbKVON7oJ_gciqgCdb-11" value="" style="endArrow=classic;html=1;rounded=0;entryX=0;entryY=0;entryDx=0;entryDy=21.5;entryPerimeter=0;labelBackgroundColor=default;strokeColor=default;" edge="1" parent="1" target="w5DbKVON7oJ_gciqgCdb-7">
          <mxGeometry width="50" height="50" relative="1" as="geometry">
            <mxPoint x="-204" y="-252" as="sourcePoint" />
            <mxPoint x="54" y="-185" as="targetPoint" />
            <Array as="points">
              <mxPoint x="-177" y="-252" />
              <mxPoint x="-177" y="-188" />
            </Array>
          </mxGeometry>
        </mxCell>
        <mxCell id="w5DbKVON7oJ_gciqgCdb-12" value="" style="endArrow=classic;html=1;rounded=0;entryX=0;entryY=0;entryDx=0;entryDy=21.5;entryPerimeter=0;exitX=0.991;exitY=0.634;exitDx=0;exitDy=0;exitPerimeter=0;labelBackgroundColor=default;strokeColor=default;" edge="1" parent="1" source="w5DbKVON7oJ_gciqgCdb-3" target="w5DbKVON7oJ_gciqgCdb-7">
          <mxGeometry width="50" height="50" relative="1" as="geometry">
            <mxPoint x="4" y="-135" as="sourcePoint" />
            <mxPoint x="54" y="-185" as="targetPoint" />
            <Array as="points">
              <mxPoint x="-176" y="-111" />
              <mxPoint x="-176" y="-188" />
            </Array>
          </mxGeometry>
        </mxCell>
        <mxCell id="w5DbKVON7oJ_gciqgCdb-13" value="RoI 特征提取器" style="shape=cube;whiteSpace=wrap;html=1;boundedLbl=1;backgroundOutline=1;darkOpacity=0.05;darkOpacity2=0.1;labelBackgroundColor=default;strokeColor=default;" vertex="1" parent="1">
          <mxGeometry x="150" y="-197" width="108" height="63" as="geometry" />
        </mxCell>
        <mxCell id="w5DbKVON7oJ_gciqgCdb-14" value="" style="endArrow=classic;html=1;rounded=0;exitX=0;exitY=0;exitDx=44;exitDy=0;exitPerimeter=0;entryX=0;entryY=0;entryDx=44.5;entryDy=48;entryPerimeter=0;labelBackgroundColor=default;strokeColor=default;" edge="1" parent="1" source="w5DbKVON7oJ_gciqgCdb-7" target="w5DbKVON7oJ_gciqgCdb-9">
          <mxGeometry width="50" height="50" relative="1" as="geometry">
            <mxPoint x="4" y="-135" as="sourcePoint" />
            <mxPoint x="54" y="-185" as="targetPoint" />
          </mxGeometry>
        </mxCell>
        <mxCell id="w5DbKVON7oJ_gciqgCdb-15" value="" style="endArrow=classic;html=1;rounded=0;entryX=0.026;entryY=0.421;entryDx=0;entryDy=0;entryPerimeter=0;labelBackgroundColor=default;strokeColor=default;" edge="1" parent="1" source="w5DbKVON7oJ_gciqgCdb-7" target="w5DbKVON7oJ_gciqgCdb-8">
          <mxGeometry width="50" height="50" relative="1" as="geometry">
            <mxPoint x="4" y="-135" as="sourcePoint" />
            <mxPoint x="29" y="-168" as="targetPoint" />
          </mxGeometry>
        </mxCell>
        <mxCell id="w5DbKVON7oJ_gciqgCdb-17" value="" style="endArrow=classic;html=1;rounded=0;exitX=0;exitY=0;exitDx=69;exitDy=34;exitPerimeter=0;labelBackgroundColor=default;strokeColor=default;" edge="1" parent="1" source="w5DbKVON7oJ_gciqgCdb-9">
          <mxGeometry width="50" height="50" relative="1" as="geometry">
            <mxPoint x="4" y="-135" as="sourcePoint" />
            <mxPoint x="11" y="-180" as="targetPoint" />
            <Array as="points">
              <mxPoint x="11" y="-279" />
            </Array>
          </mxGeometry>
        </mxCell>
        <mxCell id="w5DbKVON7oJ_gciqgCdb-18" value="" style="endArrow=classic;html=1;rounded=0;exitX=0;exitY=0;exitDx=59;exitDy=10;exitPerimeter=0;entryX=0;entryY=0;entryDx=10;entryDy=38;entryPerimeter=0;labelBackgroundColor=default;strokeColor=default;" edge="1" parent="1" source="w5DbKVON7oJ_gciqgCdb-9" target="w5DbKVON7oJ_gciqgCdb-10">
          <mxGeometry width="50" height="50" relative="1" as="geometry">
            <mxPoint x="4" y="-135" as="sourcePoint" />
            <mxPoint x="54" y="-185" as="targetPoint" />
          </mxGeometry>
        </mxCell>
        <mxCell id="w5DbKVON7oJ_gciqgCdb-19" value="" style="endArrow=classic;html=1;rounded=0;exitX=0.554;exitY=0.987;exitDx=0;exitDy=0;exitPerimeter=0;entryX=0;entryY=0;entryDx=28.5;entryDy=0;entryPerimeter=0;labelBackgroundColor=default;strokeColor=default;" edge="1" parent="1" source="w5DbKVON7oJ_gciqgCdb-10" target="w5DbKVON7oJ_gciqgCdb-8">
          <mxGeometry width="50" height="50" relative="1" as="geometry">
            <mxPoint x="4" y="-135" as="sourcePoint" />
            <mxPoint x="54" y="-185" as="targetPoint" />
          </mxGeometry>
        </mxCell>
        <mxCell id="w5DbKVON7oJ_gciqgCdb-21" value="" style="endArrow=classic;html=1;rounded=0;exitX=0;exitY=0;exitDx=77;exitDy=38.5;exitPerimeter=0;labelBackgroundColor=default;strokeColor=default;" edge="1" parent="1" source="w5DbKVON7oJ_gciqgCdb-8" target="w5DbKVON7oJ_gciqgCdb-13">
          <mxGeometry width="50" height="50" relative="1" as="geometry">
            <mxPoint x="4" y="-135" as="sourcePoint" />
            <mxPoint x="54" y="-185" as="targetPoint" />
          </mxGeometry>
        </mxCell>
        <mxCell id="w5DbKVON7oJ_gciqgCdb-22" value="" style="endArrow=classic;html=1;rounded=0;labelBackgroundColor=default;strokeColor=default;" edge="1" parent="1">
          <mxGeometry width="50" height="50" relative="1" as="geometry">
            <mxPoint x="260" y="-160" as="sourcePoint" />
            <mxPoint x="340" y="-160" as="targetPoint" />
          </mxGeometry>
        </mxCell>
        <mxCell id="w5DbKVON7oJ_gciqgCdb-180" value="候选框" style="shape=cube;whiteSpace=wrap;html=1;boundedLbl=1;backgroundOutline=1;darkOpacity=0.05;darkOpacity2=0.1;labelBackgroundColor=default;strokeColor=default;" vertex="1" parent="1">
          <mxGeometry x="350" y="-297" width="100" height="40" as="geometry" />
        </mxCell>
        <mxCell id="w5DbKVON7oJ_gciqgCdb-186" value="" style="edgeStyle=orthogonalEdgeStyle;rounded=0;orthogonalLoop=1;jettySize=auto;html=1;entryX=0;entryY=0;entryDx=10;entryDy=30;entryPerimeter=0;labelBackgroundColor=default;strokeColor=default;" edge="1" parent="1" source="w5DbKVON7oJ_gciqgCdb-181" target="w5DbKVON7oJ_gciqgCdb-184">
          <mxGeometry relative="1" as="geometry">
            <Array as="points">
              <mxPoint x="480" y="-217" />
              <mxPoint x="480" y="-302" />
            </Array>
          </mxGeometry>
        </mxCell>
        <mxCell id="w5DbKVON7oJ_gciqgCdb-181" value="候选框" style="shape=cube;whiteSpace=wrap;html=1;boundedLbl=1;backgroundOutline=1;darkOpacity=0.05;darkOpacity2=0.1;labelBackgroundColor=default;strokeColor=default;" vertex="1" parent="1">
          <mxGeometry x="350" y="-237" width="100" height="40" as="geometry" />
        </mxCell>
        <mxCell id="w5DbKVON7oJ_gciqgCdb-182" value="&lt;font style=&quot;font-size: 18px;&quot;&gt;...&lt;/font&gt;" style="text;html=1;align=center;verticalAlign=middle;resizable=0;points=[];autosize=1;strokeColor=default;fillColor=none;labelBackgroundColor=default;" vertex="1" parent="1">
          <mxGeometry x="380" y="-187" width="40" height="40" as="geometry" />
        </mxCell>
        <mxCell id="w5DbKVON7oJ_gciqgCdb-183" value="候选框" style="shape=cube;whiteSpace=wrap;html=1;boundedLbl=1;backgroundOutline=1;darkOpacity=0.05;darkOpacity2=0.1;labelBackgroundColor=default;strokeColor=default;" vertex="1" parent="1">
          <mxGeometry x="350" y="-124" width="100" height="40" as="geometry" />
        </mxCell>
        <mxCell id="w5DbKVON7oJ_gciqgCdb-184" value="回归器" style="shape=cube;whiteSpace=wrap;html=1;boundedLbl=1;backgroundOutline=1;darkOpacity=0.05;darkOpacity2=0.1;labelBackgroundColor=default;strokeColor=default;" vertex="1" parent="1">
          <mxGeometry x="510" y="-332" width="120" height="40" as="geometry" />
        </mxCell>
        <mxCell id="w5DbKVON7oJ_gciqgCdb-185" value="分类器" style="shape=cube;whiteSpace=wrap;html=1;boundedLbl=1;backgroundOutline=1;darkOpacity=0.05;darkOpacity2=0.1;labelBackgroundColor=default;strokeColor=default;" vertex="1" parent="1">
          <mxGeometry x="510" y="-237" width="120" height="40" as="geometry" />
        </mxCell>
        <mxCell id="w5DbKVON7oJ_gciqgCdb-187" value="" style="endArrow=classic;html=1;rounded=0;exitX=0;exitY=0;exitDx=100;exitDy=20;exitPerimeter=0;labelBackgroundColor=default;strokeColor=default;" edge="1" parent="1" source="w5DbKVON7oJ_gciqgCdb-181" target="w5DbKVON7oJ_gciqgCdb-185">
          <mxGeometry width="50" height="50" relative="1" as="geometry">
            <mxPoint x="190" y="-140" as="sourcePoint" />
            <mxPoint x="240" y="-190" as="targetPoint" />
          </mxGeometry>
        </mxCell>
        <mxCell id="w5DbKVON7oJ_gciqgCdb-232" value="" style="group;labelBackgroundColor=default;strokeColor=default;" vertex="1" connectable="0" parent="1">
          <mxGeometry x="510" y="-160" width="160" height="130" as="geometry" />
        </mxCell>
        <mxCell id="w5DbKVON7oJ_gciqgCdb-192" value="" style="group;labelBackgroundColor=default;strokeColor=default;" vertex="1" connectable="0" parent="w5DbKVON7oJ_gciqgCdb-232">
          <mxGeometry x="50.52631578947368" width="25.26315789473684" height="21.666666666666668" as="geometry" />
        </mxCell>
        <mxCell id="w5DbKVON7oJ_gciqgCdb-190" value="" style="ellipse;whiteSpace=wrap;html=1;aspect=fixed;labelBackgroundColor=default;strokeColor=default;" vertex="1" parent="w5DbKVON7oJ_gciqgCdb-192">
          <mxGeometry y="4.333333333333334" width="17.333333333333336" height="17.333333333333336" as="geometry" />
        </mxCell>
        <mxCell id="w5DbKVON7oJ_gciqgCdb-191" value="&lt;font style=&quot;font-size: 10px;&quot;&gt;Z&lt;/font&gt;&lt;div&gt;&lt;font size=&quot;3&quot;&gt;6&lt;/font&gt;&lt;/div&gt;" style="ellipse;whiteSpace=wrap;html=1;aspect=fixed;fillColor=#E6D0DE;labelBackgroundColor=default;strokeColor=default;" vertex="1" parent="w5DbKVON7oJ_gciqgCdb-192">
          <mxGeometry width="17.333333333333336" height="17.333333333333336" as="geometry" />
        </mxCell>
        <mxCell id="w5DbKVON7oJ_gciqgCdb-194" value="" style="group;labelBackgroundColor=default;strokeColor=default;" vertex="1" connectable="0" parent="w5DbKVON7oJ_gciqgCdb-232">
          <mxGeometry x="109.4736842105263" y="7.222222222222223" width="25.26315789473684" height="21.666666666666668" as="geometry" />
        </mxCell>
        <mxCell id="w5DbKVON7oJ_gciqgCdb-195" value="" style="ellipse;whiteSpace=wrap;html=1;aspect=fixed;labelBackgroundColor=default;strokeColor=default;" vertex="1" parent="w5DbKVON7oJ_gciqgCdb-194">
          <mxGeometry y="4.333333333333334" width="17.333333333333336" height="17.333333333333336" as="geometry" />
        </mxCell>
        <mxCell id="w5DbKVON7oJ_gciqgCdb-196" value="&lt;font style=&quot;font-size: 10px;&quot;&gt;Z&lt;/font&gt;&lt;div&gt;&lt;font size=&quot;3&quot;&gt;7&lt;/font&gt;&lt;/div&gt;" style="ellipse;whiteSpace=wrap;html=1;aspect=fixed;fillColor=#FFB570;labelBackgroundColor=default;strokeColor=default;" vertex="1" parent="w5DbKVON7oJ_gciqgCdb-194">
          <mxGeometry width="17.333333333333336" height="17.333333333333336" as="geometry" />
        </mxCell>
        <mxCell id="w5DbKVON7oJ_gciqgCdb-205" value="" style="group;labelBackgroundColor=default;strokeColor=default;" vertex="1" connectable="0" parent="w5DbKVON7oJ_gciqgCdb-232">
          <mxGeometry x="8.421052631578947" y="36.111111111111114" width="25.26315789473684" height="21.666666666666668" as="geometry" />
        </mxCell>
        <mxCell id="w5DbKVON7oJ_gciqgCdb-206" value="" style="ellipse;whiteSpace=wrap;html=1;aspect=fixed;labelBackgroundColor=default;strokeColor=default;" vertex="1" parent="w5DbKVON7oJ_gciqgCdb-205">
          <mxGeometry y="4.333333333333334" width="17.333333333333336" height="17.333333333333336" as="geometry" />
        </mxCell>
        <mxCell id="w5DbKVON7oJ_gciqgCdb-207" value="&lt;font style=&quot;font-size: 10px;&quot;&gt;Z&lt;/font&gt;&lt;div&gt;&lt;font size=&quot;3&quot;&gt;1&lt;/font&gt;&lt;/div&gt;" style="ellipse;whiteSpace=wrap;html=1;aspect=fixed;fillColor=#FF6666;labelBackgroundColor=default;strokeColor=default;" vertex="1" parent="w5DbKVON7oJ_gciqgCdb-205">
          <mxGeometry width="17.333333333333336" height="17.333333333333336" as="geometry" />
        </mxCell>
        <mxCell id="w5DbKVON7oJ_gciqgCdb-208" value="" style="group;labelBackgroundColor=default;strokeColor=default;" vertex="1" connectable="0" parent="w5DbKVON7oJ_gciqgCdb-232">
          <mxGeometry x="75.78947368421052" y="43.333333333333336" width="25.26315789473684" height="21.666666666666668" as="geometry" />
        </mxCell>
        <mxCell id="w5DbKVON7oJ_gciqgCdb-209" value="" style="ellipse;whiteSpace=wrap;html=1;aspect=fixed;labelBackgroundColor=default;strokeColor=default;" vertex="1" parent="w5DbKVON7oJ_gciqgCdb-208">
          <mxGeometry y="4.333333333333334" width="17.333333333333336" height="17.333333333333336" as="geometry" />
        </mxCell>
        <mxCell id="w5DbKVON7oJ_gciqgCdb-210" value="&lt;font style=&quot;font-size: 10px;&quot;&gt;Z&lt;/font&gt;&lt;div&gt;&lt;font size=&quot;3&quot;&gt;5&lt;/font&gt;&lt;/div&gt;" style="ellipse;whiteSpace=wrap;html=1;aspect=fixed;fillColor=#66FFFF;labelBackgroundColor=default;strokeColor=default;" vertex="1" parent="w5DbKVON7oJ_gciqgCdb-208">
          <mxGeometry width="17.333333333333336" height="17.333333333333336" as="geometry" />
        </mxCell>
        <mxCell id="w5DbKVON7oJ_gciqgCdb-215" value="" style="group;labelBackgroundColor=default;strokeColor=default;" vertex="1" connectable="0" parent="w5DbKVON7oJ_gciqgCdb-232">
          <mxGeometry x="42.10526315789473" y="79.44444444444446" width="25.26315789473684" height="21.666666666666668" as="geometry" />
        </mxCell>
        <mxCell id="w5DbKVON7oJ_gciqgCdb-216" value="" style="ellipse;whiteSpace=wrap;html=1;aspect=fixed;labelBackgroundColor=default;strokeColor=default;" vertex="1" parent="w5DbKVON7oJ_gciqgCdb-215">
          <mxGeometry y="4.333333333333334" width="17.333333333333336" height="17.333333333333336" as="geometry" />
        </mxCell>
        <mxCell id="w5DbKVON7oJ_gciqgCdb-217" value="&lt;font style=&quot;font-size: 10px;&quot;&gt;Z&lt;/font&gt;&lt;div&gt;&lt;font size=&quot;3&quot;&gt;3&lt;/font&gt;&lt;/div&gt;" style="ellipse;whiteSpace=wrap;html=1;aspect=fixed;fillColor=#A9C4EB;labelBackgroundColor=default;strokeColor=default;" vertex="1" parent="w5DbKVON7oJ_gciqgCdb-215">
          <mxGeometry width="17.333333333333336" height="17.333333333333336" as="geometry" />
        </mxCell>
        <mxCell id="w5DbKVON7oJ_gciqgCdb-218" value="" style="group;labelBackgroundColor=default;strokeColor=default;" vertex="1" connectable="0" parent="w5DbKVON7oJ_gciqgCdb-232">
          <mxGeometry x="134.73684210526315" y="57.777777777777786" width="25.26315789473684" height="21.666666666666668" as="geometry" />
        </mxCell>
        <mxCell id="w5DbKVON7oJ_gciqgCdb-219" value="" style="ellipse;whiteSpace=wrap;html=1;aspect=fixed;labelBackgroundColor=default;strokeColor=default;" vertex="1" parent="w5DbKVON7oJ_gciqgCdb-218">
          <mxGeometry y="4.333333333333334" width="17.333333333333336" height="17.333333333333336" as="geometry" />
        </mxCell>
        <mxCell id="w5DbKVON7oJ_gciqgCdb-220" value="&lt;font style=&quot;font-size: 10px;&quot;&gt;Z&lt;/font&gt;&lt;div&gt;&lt;font size=&quot;3&quot;&gt;n&lt;/font&gt;&lt;/div&gt;" style="ellipse;whiteSpace=wrap;html=1;aspect=fixed;fillColor=#FF9999;labelBackgroundColor=default;strokeColor=default;" vertex="1" parent="w5DbKVON7oJ_gciqgCdb-218">
          <mxGeometry width="17.333333333333336" height="17.333333333333336" as="geometry" />
        </mxCell>
        <mxCell id="w5DbKVON7oJ_gciqgCdb-221" value="" style="group;labelBackgroundColor=default;strokeColor=default;" vertex="1" connectable="0" parent="w5DbKVON7oJ_gciqgCdb-232">
          <mxGeometry y="101.11111111111111" width="25.26315789473684" height="21.666666666666668" as="geometry" />
        </mxCell>
        <mxCell id="w5DbKVON7oJ_gciqgCdb-222" value="" style="ellipse;whiteSpace=wrap;html=1;aspect=fixed;labelBackgroundColor=default;strokeColor=default;" vertex="1" parent="w5DbKVON7oJ_gciqgCdb-221">
          <mxGeometry y="4.333333333333334" width="17.333333333333336" height="17.333333333333336" as="geometry" />
        </mxCell>
        <mxCell id="w5DbKVON7oJ_gciqgCdb-223" value="&lt;font style=&quot;font-size: 10px;&quot;&gt;Z&lt;/font&gt;&lt;div&gt;&lt;font size=&quot;3&quot;&gt;2&lt;/font&gt;&lt;/div&gt;" style="ellipse;whiteSpace=wrap;html=1;aspect=fixed;fillColor=#B9E0A5;labelBackgroundColor=default;strokeColor=default;" vertex="1" parent="w5DbKVON7oJ_gciqgCdb-221">
          <mxGeometry width="17.333333333333336" height="17.333333333333336" as="geometry" />
        </mxCell>
        <mxCell id="w5DbKVON7oJ_gciqgCdb-224" value="" style="group;labelBackgroundColor=default;strokeColor=default;" vertex="1" connectable="0" parent="w5DbKVON7oJ_gciqgCdb-232">
          <mxGeometry x="101.05263157894736" y="108.33333333333334" width="25.26315789473684" height="21.666666666666668" as="geometry" />
        </mxCell>
        <mxCell id="w5DbKVON7oJ_gciqgCdb-225" value="" style="ellipse;whiteSpace=wrap;html=1;aspect=fixed;labelBackgroundColor=default;strokeColor=default;" vertex="1" parent="w5DbKVON7oJ_gciqgCdb-224">
          <mxGeometry y="4.333333333333334" width="17.333333333333336" height="17.333333333333336" as="geometry" />
        </mxCell>
        <mxCell id="w5DbKVON7oJ_gciqgCdb-226" value="&lt;font style=&quot;font-size: 10px;&quot;&gt;Z&lt;/font&gt;&lt;div&gt;&lt;font size=&quot;3&quot;&gt;1&lt;/font&gt;&lt;/div&gt;" style="ellipse;whiteSpace=wrap;html=1;aspect=fixed;fillColor=#FF8000;labelBackgroundColor=default;strokeColor=default;" vertex="1" parent="w5DbKVON7oJ_gciqgCdb-224">
          <mxGeometry width="17.333333333333336" height="17.333333333333336" as="geometry" />
        </mxCell>
        <mxCell id="w5DbKVON7oJ_gciqgCdb-239" value="" style="endArrow=none;dashed=1;html=1;dashPattern=1 3;strokeWidth=2;rounded=0;exitX=1;exitY=0;exitDx=0;exitDy=0;entryX=0;entryY=0.5;entryDx=0;entryDy=0;labelBackgroundColor=default;strokeColor=default;" edge="1" parent="w5DbKVON7oJ_gciqgCdb-232" source="w5DbKVON7oJ_gciqgCdb-207" target="w5DbKVON7oJ_gciqgCdb-191">
          <mxGeometry width="50" height="50" relative="1" as="geometry">
            <mxPoint x="-190" y="-70" as="sourcePoint" />
            <mxPoint x="-140" y="-120" as="targetPoint" />
            <Array as="points">
              <mxPoint x="30" y="20" />
            </Array>
          </mxGeometry>
        </mxCell>
        <mxCell id="w5DbKVON7oJ_gciqgCdb-240" value="" style="endArrow=none;dashed=1;html=1;dashPattern=1 3;strokeWidth=2;rounded=0;exitX=0.5;exitY=1;exitDx=0;exitDy=0;entryX=0;entryY=0;entryDx=0;entryDy=0;labelBackgroundColor=default;strokeColor=default;" edge="1" parent="w5DbKVON7oJ_gciqgCdb-232" source="w5DbKVON7oJ_gciqgCdb-207" target="w5DbKVON7oJ_gciqgCdb-217">
          <mxGeometry width="50" height="50" relative="1" as="geometry">
            <mxPoint x="33" y="49" as="sourcePoint" />
            <mxPoint x="61" y="19" as="targetPoint" />
            <Array as="points">
              <mxPoint x="20" y="70" />
            </Array>
          </mxGeometry>
        </mxCell>
        <mxCell id="w5DbKVON7oJ_gciqgCdb-241" value="" style="endArrow=none;dashed=1;html=1;dashPattern=1 3;strokeWidth=2;rounded=0;exitX=0;exitY=0.5;exitDx=0;exitDy=0;entryX=0.5;entryY=0;entryDx=0;entryDy=0;labelBackgroundColor=default;strokeColor=default;" edge="1" parent="w5DbKVON7oJ_gciqgCdb-232" source="w5DbKVON7oJ_gciqgCdb-209" target="w5DbKVON7oJ_gciqgCdb-223">
          <mxGeometry width="50" height="50" relative="1" as="geometry">
            <mxPoint x="27" y="63" as="sourcePoint" />
            <mxPoint x="55" y="92" as="targetPoint" />
            <Array as="points">
              <mxPoint x="40" y="60" />
            </Array>
          </mxGeometry>
        </mxCell>
        <mxCell id="w5DbKVON7oJ_gciqgCdb-242" value="" style="endArrow=none;dashed=1;html=1;dashPattern=1 3;strokeWidth=2;rounded=0;exitX=0;exitY=1;exitDx=0;exitDy=0;entryX=1;entryY=0.5;entryDx=0;entryDy=0;labelBackgroundColor=default;strokeColor=default;" edge="1" parent="w5DbKVON7oJ_gciqgCdb-232" source="w5DbKVON7oJ_gciqgCdb-225" target="w5DbKVON7oJ_gciqgCdb-223">
          <mxGeometry width="50" height="50" relative="1" as="geometry">
            <mxPoint x="37" y="73" as="sourcePoint" />
            <mxPoint x="65" y="102" as="targetPoint" />
            <Array as="points">
              <mxPoint x="50" y="140" />
            </Array>
          </mxGeometry>
        </mxCell>
        <mxCell id="w5DbKVON7oJ_gciqgCdb-243" value="" style="endArrow=none;dashed=1;html=1;dashPattern=1 3;strokeWidth=2;rounded=0;exitX=1;exitY=0.5;exitDx=0;exitDy=0;entryX=1;entryY=1;entryDx=0;entryDy=0;labelBackgroundColor=default;strokeColor=default;" edge="1" parent="w5DbKVON7oJ_gciqgCdb-232" source="w5DbKVON7oJ_gciqgCdb-219" target="w5DbKVON7oJ_gciqgCdb-226">
          <mxGeometry width="50" height="50" relative="1" as="geometry">
            <mxPoint x="114" y="137" as="sourcePoint" />
            <mxPoint x="27" y="120" as="targetPoint" />
            <Array as="points">
              <mxPoint x="150" y="100" />
            </Array>
          </mxGeometry>
        </mxCell>
        <mxCell id="w5DbKVON7oJ_gciqgCdb-244" value="" style="endArrow=none;dashed=1;html=1;dashPattern=1 3;strokeWidth=2;rounded=0;exitX=0.5;exitY=1;exitDx=0;exitDy=0;entryX=1;entryY=1;entryDx=0;entryDy=0;labelBackgroundColor=default;strokeColor=default;" edge="1" parent="w5DbKVON7oJ_gciqgCdb-232" source="w5DbKVON7oJ_gciqgCdb-220" target="w5DbKVON7oJ_gciqgCdb-216">
          <mxGeometry width="50" height="50" relative="1" as="geometry">
            <mxPoint x="124" y="147" as="sourcePoint" />
            <mxPoint x="37" y="130" as="targetPoint" />
            <Array as="points">
              <mxPoint x="90" y="99" />
            </Array>
          </mxGeometry>
        </mxCell>
        <mxCell id="w5DbKVON7oJ_gciqgCdb-245" value="" style="endArrow=none;dashed=1;html=1;dashPattern=1 3;strokeWidth=2;rounded=0;exitX=0.5;exitY=0;exitDx=0;exitDy=0;entryX=1;entryY=1;entryDx=0;entryDy=0;labelBackgroundColor=default;strokeColor=default;" edge="1" parent="w5DbKVON7oJ_gciqgCdb-232" source="w5DbKVON7oJ_gciqgCdb-226" target="w5DbKVON7oJ_gciqgCdb-210">
          <mxGeometry width="50" height="50" relative="1" as="geometry">
            <mxPoint x="134" y="157" as="sourcePoint" />
            <mxPoint x="47" y="140" as="targetPoint" />
            <Array as="points">
              <mxPoint x="120" y="90" />
            </Array>
          </mxGeometry>
        </mxCell>
        <mxCell id="w5DbKVON7oJ_gciqgCdb-246" value="" style="endArrow=none;dashed=1;html=1;dashPattern=1 3;strokeWidth=2;rounded=0;exitX=0;exitY=0;exitDx=0;exitDy=0;labelBackgroundColor=default;strokeColor=default;" edge="1" parent="1" source="w5DbKVON7oJ_gciqgCdb-220">
          <mxGeometry width="50" height="50" relative="1" as="geometry">
            <mxPoint x="654" y="7" as="sourcePoint" />
            <mxPoint x="620" y="-150" as="targetPoint" />
            <Array as="points">
              <mxPoint x="630" y="-110" />
            </Array>
          </mxGeometry>
        </mxCell>
        <mxCell id="w5DbKVON7oJ_gciqgCdb-247" value="" style="endArrow=none;dashed=1;html=1;dashPattern=1 3;strokeWidth=2;rounded=0;entryX=1;entryY=0;entryDx=0;entryDy=0;labelBackgroundColor=default;strokeColor=default;" edge="1" parent="1" target="w5DbKVON7oJ_gciqgCdb-210">
          <mxGeometry width="50" height="50" relative="1" as="geometry">
            <mxPoint x="620" y="-140" as="sourcePoint" />
            <mxPoint x="577" as="targetPoint" />
            <Array as="points">
              <mxPoint x="594" y="-150" />
            </Array>
          </mxGeometry>
        </mxCell>
        <mxCell id="w5DbKVON7oJ_gciqgCdb-249" value="" style="endArrow=classic;html=1;rounded=0;exitX=0;exitY=0;exitDx=100;exitDy=20;exitPerimeter=0;labelBackgroundColor=default;strokeColor=default;" edge="1" parent="1" source="w5DbKVON7oJ_gciqgCdb-181">
          <mxGeometry width="50" height="50" relative="1" as="geometry">
            <mxPoint x="320" y="-120" as="sourcePoint" />
            <mxPoint x="510" y="-80" as="targetPoint" />
            <Array as="points">
              <mxPoint x="480" y="-217" />
              <mxPoint x="480" y="-80" />
            </Array>
          </mxGeometry>
        </mxCell>
        <mxCell id="w5DbKVON7oJ_gciqgCdb-250" value="&lt;svg style=&quot;vertical-align: -0.339ex;&quot; xmlns:xlink=&quot;http://www.w3.org/1999/xlink&quot; viewBox=&quot;0 -683 1119.6 833&quot; role=&quot;img&quot; height=&quot;1.885ex&quot; width=&quot;2.533ex&quot; xmlns=&quot;http://www.w3.org/2000/svg&quot;&gt;&lt;defs&gt;&lt;path d=&quot;M58 8Q58 23 64 35Q64 36 329 334T596 635L586 637Q575 637 512 637H500H476Q442 637 420 635T365 624T311 598T266 548T228 469Q227 466 226 463T224 458T223 453T222 450L221 448Q218 443 202 443Q185 443 182 453L214 561Q228 606 241 651Q249 679 253 681Q256 683 487 683H718Q723 678 723 675Q723 673 717 649Q189 54 188 52L185 49H274Q369 50 377 51Q452 60 500 100T579 247Q587 272 590 277T603 282H607Q628 282 628 271Q547 5 541 2Q538 0 300 0H124Q58 0 58 8Z&quot; id=&quot;MJX-1-TEX-I-1D44D&quot;&gt;&lt;/path&gt;&lt;path d=&quot;M213 578L200 573Q186 568 160 563T102 556H83V602H102Q149 604 189 617T245 641T273 663Q275 666 285 666Q294 666 302 660V361L303 61Q310 54 315 52T339 48T401 46H427V0H416Q395 3 257 3Q121 3 100 0H88V46H114Q136 46 152 46T177 47T193 50T201 52T207 57T213 61V578Z&quot; id=&quot;MJX-1-TEX-N-31&quot;&gt;&lt;/path&gt;&lt;/defs&gt;&lt;g transform=&quot;scale(1,-1)&quot; stroke-width=&quot;0&quot; fill=&quot;currentColor&quot; stroke=&quot;currentColor&quot;&gt;&lt;g data-mml-node=&quot;math&quot;&gt;&lt;g data-mml-node=&quot;msub&quot;&gt;&lt;g data-mml-node=&quot;mi&quot;&gt;&lt;use xlink:href=&quot;#MJX-1-TEX-I-1D44D&quot; data-c=&quot;1D44D&quot;&gt;&lt;/use&gt;&lt;/g&gt;&lt;g transform=&quot;translate(716,-150) scale(0.707)&quot; data-mml-node=&quot;mn&quot;&gt;&lt;use xlink:href=&quot;#MJX-1-TEX-N-31&quot; data-c=&quot;31&quot;&gt;&lt;/use&gt;&lt;/g&gt;&lt;/g&gt;&lt;/g&gt;&lt;/g&gt;&lt;/svg&gt;" style="text;html=1;align=center;verticalAlign=middle;whiteSpace=wrap;rounded=0;" vertex="1" parent="1">
          <mxGeometry x="220" width="60" height="30" as="geometry" />
        </mxCell>
      </root>
    </mxGraphModel>
  </diagram>
</mxfile>
